G75*
G70*
%OFA0B0*%
%FSLAX24Y24*%
%IPPOS*%
%LPD*%
%AMOC8*
5,1,8,0,0,1.08239X$1,22.5*
%
%ADD10R,0.0474X0.0513*%
%ADD11R,0.0631X0.0710*%
%ADD12C,0.1740*%
%ADD13C,0.1700*%
%ADD14R,0.0580X0.0300*%
%ADD15R,0.0300X0.0580*%
%ADD16C,0.0820*%
%ADD17R,0.0749X0.0356*%
%ADD18OC8,0.0820*%
%ADD19R,0.0513X0.0474*%
%ADD20C,0.1280*%
%ADD21R,0.0474X0.0789*%
%ADD22R,0.0297X0.0552*%
%ADD23C,0.0820*%
D10*
X005160Y006325D03*
X005160Y006995D03*
X003660Y013825D03*
X003660Y014495D03*
X013160Y006995D03*
X013160Y006325D03*
X013160Y002995D03*
X013160Y002325D03*
D11*
X002711Y015660D03*
X001609Y015660D03*
X001609Y020660D03*
X002711Y020660D03*
D12*
X005160Y023196D03*
D13*
X003679Y024447D03*
X005150Y026079D03*
D14*
X005970Y015762D03*
X005970Y015447D03*
X005970Y015132D03*
X005970Y014817D03*
X005970Y014503D03*
X005970Y014188D03*
X005970Y013873D03*
X005970Y013558D03*
X009350Y013558D03*
X009350Y013873D03*
X009350Y014188D03*
X009350Y014503D03*
X009350Y014817D03*
X009350Y015132D03*
X009350Y015447D03*
X009350Y015762D03*
D15*
X008762Y016350D03*
X008447Y016350D03*
X008132Y016350D03*
X007817Y016350D03*
X007503Y016350D03*
X007188Y016350D03*
X006873Y016350D03*
X006558Y016350D03*
X006558Y012970D03*
X006873Y012970D03*
X007188Y012970D03*
X007503Y012970D03*
X007817Y012970D03*
X008132Y012970D03*
X008447Y012970D03*
X008762Y012970D03*
D16*
X006050Y004440D03*
X006050Y001880D03*
X004270Y001880D03*
X004270Y004440D03*
X009660Y023660D03*
X010660Y023660D03*
X011660Y023660D03*
X012660Y023660D03*
X013660Y023660D03*
X014660Y023660D03*
D17*
X005160Y016132D03*
X005160Y015660D03*
X005160Y015188D03*
D18*
X006160Y010160D03*
X006160Y009160D03*
X007160Y009160D03*
X007160Y010160D03*
X008160Y010160D03*
X008160Y009160D03*
D19*
X002495Y019160D03*
X001825Y019160D03*
X013975Y021010D03*
X014645Y021010D03*
D20*
X001660Y001660D03*
X001660Y007160D03*
X001660Y026160D03*
X017160Y026160D03*
X017160Y007160D03*
X017160Y001660D03*
D21*
X002711Y022160D03*
X001609Y022160D03*
D22*
X001786Y018172D03*
X002160Y018172D03*
X002534Y018172D03*
X002534Y017148D03*
X001786Y017148D03*
D23*
X011790Y017160D02*
X012530Y017160D01*
X012530Y016160D02*
X011790Y016160D01*
X011790Y015160D02*
X012530Y015160D01*
X012530Y014160D02*
X011790Y014160D01*
X011790Y018160D02*
X012530Y018160D01*
M02*
