%
M48
M72
T01C0.0200
T02C0.0400
T03C0.0440
T04C0.1180
T05C0.1200
T06C0.1260
%
T01
X7560Y8260
X9560Y13160
X9910Y13560
X8610Y15460
X9160Y16160
X8710Y16910
X9060Y17260
X7210Y14710
X6860Y14010
X11160Y10960
X12160Y10960
X12410Y6310
X10810Y2310
T02
X8160Y9160
X8160Y10160
X7160Y10160
X7160Y9160
X6160Y9160
X6160Y10160
X6050Y4440
X6050Y1880
X4270Y1880
X4270Y4440
X9660Y23660
X10660Y23660
X11660Y23660
X12660Y23660
X13660Y23660
X14660Y23660
T03
X12160Y18160
X12160Y17160
X12160Y16160
X12160Y15160
X12160Y14160
T04
X5150Y26079
X3679Y24447
T05
X1660Y1660
X1660Y7160
X1660Y26160
X17160Y26160
X17160Y7160
X17160Y1660
T06
X5160Y23196
M30
