G75*
G70*
%OFA0B0*%
%FSLAX24Y24*%
%IPPOS*%
%LPD*%
%AMOC8*
5,1,8,0,0,1.08239X$1,22.5*
%
%ADD10C,0.0110*%
%ADD11C,0.0080*%
D10*
X011215Y001715D02*
X011215Y002306D01*
X011510Y002306D01*
X011609Y002207D01*
X011609Y002010D01*
X011510Y001912D01*
X011215Y001912D01*
X011860Y002010D02*
X012253Y002010D01*
X012253Y002109D02*
X012056Y002306D01*
X011860Y002109D01*
X011860Y001715D01*
X012253Y001715D02*
X012253Y002109D01*
X012504Y002109D02*
X012603Y002010D01*
X012799Y002010D01*
X012898Y001912D01*
X012898Y001813D01*
X012799Y001715D01*
X012603Y001715D01*
X012504Y001813D01*
X012504Y002109D02*
X012504Y002207D01*
X012603Y002306D01*
X012799Y002306D01*
X012898Y002207D01*
X013149Y002207D02*
X013149Y002109D01*
X013247Y002010D01*
X013444Y002010D01*
X013542Y001912D01*
X013542Y001813D01*
X013444Y001715D01*
X013247Y001715D01*
X013149Y001813D01*
X013149Y002207D02*
X013247Y002306D01*
X013444Y002306D01*
X013542Y002207D01*
X013793Y002404D02*
X013793Y002010D01*
X013793Y001813D02*
X013793Y001715D01*
X014008Y001715D02*
X014008Y001813D01*
X014008Y002010D02*
X014008Y002404D01*
X014223Y002404D02*
X014223Y002010D01*
X014223Y001813D02*
X014223Y001715D01*
X014187Y003715D02*
X013990Y003912D01*
X014088Y003912D02*
X013793Y003912D01*
X013793Y003715D02*
X013793Y004306D01*
X014088Y004306D01*
X014187Y004207D01*
X014187Y004010D01*
X014088Y003912D01*
X014438Y004010D02*
X014831Y004010D01*
X014831Y004109D02*
X014635Y004306D01*
X014438Y004109D01*
X014438Y003715D01*
X014831Y003715D02*
X014831Y004109D01*
X015082Y004306D02*
X015082Y003715D01*
X015476Y003715D02*
X015476Y004306D01*
X015279Y004109D01*
X015082Y004306D01*
X015727Y004306D02*
X015727Y003715D01*
X016121Y003715D02*
X016121Y004306D01*
X015924Y004109D01*
X015727Y004306D01*
X016371Y004306D02*
X016568Y004306D01*
X016470Y004306D02*
X016470Y003715D01*
X016568Y003715D02*
X016371Y003715D01*
X016801Y003715D02*
X016801Y004306D01*
X017195Y003715D01*
X017195Y004306D01*
X017446Y004207D02*
X017446Y003813D01*
X017544Y003715D01*
X017741Y003715D01*
X017839Y003813D01*
X017839Y004010D01*
X017642Y004010D01*
X017446Y004207D02*
X017544Y004306D01*
X017741Y004306D01*
X017839Y004207D01*
X013542Y004207D02*
X013444Y004306D01*
X013247Y004306D01*
X013149Y004207D01*
X013149Y003813D01*
X013247Y003715D01*
X013444Y003715D01*
X013542Y003813D01*
X013542Y004010D01*
X013345Y004010D01*
X012898Y003813D02*
X012799Y003715D01*
X012603Y003715D01*
X012504Y003813D01*
X012504Y004207D01*
X012603Y004306D01*
X012799Y004306D01*
X012898Y004207D01*
X012898Y003813D01*
X012253Y003715D02*
X012056Y003912D01*
X012155Y003912D02*
X011860Y003912D01*
X011860Y003715D02*
X011860Y004306D01*
X012155Y004306D01*
X012253Y004207D01*
X012253Y004010D01*
X012155Y003912D01*
X011609Y004010D02*
X011510Y003912D01*
X011215Y003912D01*
X011215Y003715D02*
X011215Y004306D01*
X011510Y004306D01*
X011609Y004207D01*
X011609Y004010D01*
X008605Y026514D02*
X008211Y026514D01*
X008211Y026613D01*
X008605Y027007D01*
X008605Y027105D01*
X007960Y026908D02*
X007960Y026514D01*
X007567Y026514D02*
X007567Y026908D01*
X007764Y027105D01*
X007960Y026908D01*
D11*
X001200Y004120D02*
X001200Y003700D01*
X001200Y003840D02*
X001410Y003840D01*
X001480Y003910D01*
X001480Y004050D01*
X001410Y004120D01*
X001200Y004120D01*
X001340Y003840D02*
X001480Y003700D01*
X001660Y003700D02*
X001941Y003700D01*
X002121Y003770D02*
X002191Y003700D01*
X002331Y003700D01*
X002401Y003770D01*
X002401Y003840D01*
X002331Y003910D01*
X002191Y003910D01*
X002121Y003980D01*
X002121Y004050D01*
X002191Y004120D01*
X002331Y004120D01*
X002401Y004050D01*
X002581Y004120D02*
X002581Y003700D01*
X002861Y003700D01*
X002721Y003910D02*
X002581Y003910D01*
X002581Y004120D02*
X002861Y004120D01*
X003042Y004120D02*
X003322Y004120D01*
X003182Y004120D02*
X003182Y003700D01*
X003960Y004010D02*
X003960Y002310D01*
X004755Y001960D02*
X005560Y001960D01*
X006360Y002310D02*
X006360Y004010D01*
X005560Y004360D02*
X004767Y004360D01*
X004460Y003160D02*
X004462Y003212D01*
X004468Y003264D01*
X004478Y003316D01*
X004491Y003366D01*
X004508Y003416D01*
X004529Y003464D01*
X004554Y003510D01*
X004582Y003554D01*
X004613Y003596D01*
X004647Y003636D01*
X004684Y003673D01*
X004724Y003707D01*
X004766Y003738D01*
X004810Y003766D01*
X004856Y003791D01*
X004904Y003812D01*
X004954Y003829D01*
X005004Y003842D01*
X005056Y003852D01*
X005108Y003858D01*
X005160Y003860D01*
X005212Y003858D01*
X005264Y003852D01*
X005316Y003842D01*
X005366Y003829D01*
X005416Y003812D01*
X005464Y003791D01*
X005510Y003766D01*
X005554Y003738D01*
X005596Y003707D01*
X005636Y003673D01*
X005673Y003636D01*
X005707Y003596D01*
X005738Y003554D01*
X005766Y003510D01*
X005791Y003464D01*
X005812Y003416D01*
X005829Y003366D01*
X005842Y003316D01*
X005852Y003264D01*
X005858Y003212D01*
X005860Y003160D01*
X005858Y003108D01*
X005852Y003056D01*
X005842Y003004D01*
X005829Y002954D01*
X005812Y002904D01*
X005791Y002856D01*
X005766Y002810D01*
X005738Y002766D01*
X005707Y002724D01*
X005673Y002684D01*
X005636Y002647D01*
X005596Y002613D01*
X005554Y002582D01*
X005510Y002554D01*
X005464Y002529D01*
X005416Y002508D01*
X005366Y002491D01*
X005316Y002478D01*
X005264Y002468D01*
X005212Y002462D01*
X005160Y002460D01*
X005108Y002462D01*
X005056Y002468D01*
X005004Y002478D01*
X004954Y002491D01*
X004904Y002508D01*
X004856Y002529D01*
X004810Y002554D01*
X004766Y002582D01*
X004724Y002613D01*
X004684Y002647D01*
X004647Y002684D01*
X004613Y002724D01*
X004582Y002766D01*
X004554Y002810D01*
X004529Y002856D01*
X004508Y002904D01*
X004491Y002954D01*
X004478Y003004D01*
X004468Y003056D01*
X004462Y003108D01*
X004460Y003160D01*
X001941Y004120D02*
X001660Y004120D01*
X001660Y003700D01*
X001660Y003910D02*
X001801Y003910D01*
X008715Y003766D02*
X008715Y004554D01*
X009266Y004554D01*
X009542Y004436D02*
X009542Y004160D01*
X009778Y004396D01*
X009778Y003924D01*
X009542Y004160D01*
X009542Y003884D01*
X009266Y003766D02*
X008715Y003766D01*
X008715Y002554D02*
X009266Y002554D01*
X009542Y002436D02*
X009542Y002160D01*
X009778Y002396D01*
X009778Y001924D01*
X009542Y002160D01*
X009542Y001884D01*
X009266Y001766D02*
X008715Y001766D01*
X008715Y002554D01*
X010054Y002554D02*
X010605Y002554D01*
X010605Y001766D01*
X010054Y001766D01*
X010054Y003766D02*
X010605Y003766D01*
X010605Y004554D01*
X010054Y004554D01*
X011910Y013660D02*
X012410Y013660D01*
X012410Y018660D02*
X011910Y018660D01*
X012500Y021669D02*
X012500Y021949D01*
X012500Y021809D02*
X012920Y021809D01*
X012920Y022129D02*
X012500Y022409D01*
X012570Y022590D02*
X012850Y022590D01*
X012920Y022660D01*
X012920Y022800D01*
X012850Y022870D01*
X012570Y022870D01*
X012500Y022800D01*
X012500Y022660D01*
X012570Y022590D01*
X012920Y022409D02*
X012500Y022129D01*
X011920Y022199D02*
X011850Y022129D01*
X011920Y022199D02*
X011920Y022339D01*
X011850Y022409D01*
X011710Y022409D01*
X011640Y022339D01*
X011640Y022269D01*
X011710Y022129D01*
X011500Y022129D01*
X011500Y022409D01*
X011500Y022590D02*
X011780Y022590D01*
X011920Y022730D01*
X011780Y022870D01*
X011500Y022870D01*
X011410Y023160D02*
X011160Y023410D01*
X010910Y023160D01*
X010410Y023160D01*
X010160Y023410D01*
X009910Y023160D01*
X009410Y023160D01*
X009160Y023410D01*
X009160Y023910D01*
X009410Y024160D01*
X009910Y024160D01*
X010160Y023910D01*
X010410Y024160D01*
X010910Y024160D01*
X011160Y023910D01*
X011410Y024160D01*
X011910Y024160D01*
X012160Y023910D01*
X012410Y024160D01*
X012910Y024160D01*
X013160Y023910D01*
X013410Y024160D01*
X013910Y024160D01*
X014160Y023910D01*
X014410Y024160D01*
X014910Y024160D01*
X015160Y023910D01*
X015160Y023410D01*
X014910Y023160D01*
X014410Y023160D01*
X014160Y023410D01*
X013910Y023160D01*
X013410Y023160D01*
X013160Y023410D01*
X012910Y023160D01*
X012410Y023160D01*
X012160Y023410D01*
X011910Y023160D01*
X011410Y023160D01*
X010920Y022800D02*
X010920Y022660D01*
X010850Y022590D01*
X010710Y022660D02*
X010710Y022800D01*
X010780Y022870D01*
X010850Y022870D01*
X010920Y022800D01*
X010710Y022660D02*
X010640Y022590D01*
X010570Y022590D01*
X010500Y022660D01*
X010500Y022800D01*
X010570Y022870D01*
X010500Y022409D02*
X010500Y022129D01*
X010500Y022269D02*
X010920Y022269D01*
X010850Y021949D02*
X010920Y021879D01*
X010920Y021739D01*
X010850Y021669D01*
X010570Y021669D01*
X010500Y021739D01*
X010500Y021879D01*
X010570Y021949D01*
X009920Y021879D02*
X009920Y021739D01*
X009850Y021669D01*
X009570Y021669D01*
X009500Y021739D01*
X009500Y021879D01*
X009570Y021949D01*
X009710Y021949D02*
X009710Y021809D01*
X009710Y021949D02*
X009850Y021949D01*
X009920Y021879D01*
X009920Y022129D02*
X009500Y022129D01*
X009920Y022409D01*
X009500Y022409D01*
X009500Y022590D02*
X009500Y022800D01*
X009570Y022870D01*
X009850Y022870D01*
X009920Y022800D01*
X009920Y022590D01*
X009500Y022590D01*
X006872Y023046D02*
X006105Y023046D01*
X006872Y023046D02*
X006872Y027379D01*
X003448Y027379D01*
X003448Y025392D01*
X003448Y023542D02*
X003448Y023046D01*
X004215Y023046D01*
X013500Y022883D02*
X013500Y022743D01*
X013500Y022813D02*
X013920Y022813D01*
X013920Y022743D02*
X013920Y022883D01*
X013920Y022563D02*
X013500Y022283D01*
X013570Y022103D02*
X013500Y022032D01*
X013500Y021822D01*
X013920Y021822D01*
X013780Y021822D02*
X013780Y022032D01*
X013710Y022103D01*
X013570Y022103D01*
X013780Y021962D02*
X013920Y022103D01*
X013920Y022283D02*
X013500Y022563D01*
X014500Y022590D02*
X014500Y022800D01*
X014570Y022870D01*
X014710Y022870D01*
X014780Y022800D01*
X014780Y022590D01*
X014780Y022730D02*
X014920Y022870D01*
X014920Y022590D02*
X014500Y022590D01*
X014500Y022409D02*
X014500Y022129D01*
X014500Y022269D02*
X014920Y022269D01*
X014850Y021949D02*
X014570Y021949D01*
X014500Y021879D01*
X014500Y021669D01*
X014920Y021669D01*
X014920Y021879D01*
X014850Y021949D01*
M02*
