G75*
G70*
%OFA0B0*%
%FSLAX24Y24*%
%IPPOS*%
%LPD*%
%AMOC8*
5,1,8,0,0,1.08239X$1,22.5*
%
%ADD10C,0.0100*%
%ADD11C,0.1660*%
%ADD12C,0.1620*%
%ADD13C,0.0740*%
%ADD14OC8,0.0740*%
%ADD15R,0.0472X0.0551*%
%ADD16C,0.0000*%
%ADD17C,0.0740*%
%ADD18C,0.0120*%
%ADD19C,0.0400*%
D10*
X000160Y001160D02*
X000160Y026660D01*
X000162Y026720D01*
X000167Y026781D01*
X000176Y026840D01*
X000189Y026899D01*
X000205Y026958D01*
X000225Y027015D01*
X000248Y027070D01*
X000275Y027125D01*
X000304Y027177D01*
X000337Y027228D01*
X000373Y027277D01*
X000411Y027323D01*
X000453Y027367D01*
X000497Y027409D01*
X000543Y027447D01*
X000592Y027483D01*
X000643Y027516D01*
X000695Y027545D01*
X000750Y027572D01*
X000805Y027595D01*
X000862Y027615D01*
X000921Y027631D01*
X000980Y027644D01*
X001039Y027653D01*
X001100Y027658D01*
X001160Y027660D01*
X017660Y027660D01*
X017720Y027658D01*
X017781Y027653D01*
X017840Y027644D01*
X017899Y027631D01*
X017958Y027615D01*
X018015Y027595D01*
X018070Y027572D01*
X018125Y027545D01*
X018177Y027516D01*
X018228Y027483D01*
X018277Y027447D01*
X018323Y027409D01*
X018367Y027367D01*
X018409Y027323D01*
X018447Y027277D01*
X018483Y027228D01*
X018516Y027177D01*
X018545Y027125D01*
X018572Y027070D01*
X018595Y027015D01*
X018615Y026958D01*
X018631Y026899D01*
X018644Y026840D01*
X018653Y026781D01*
X018658Y026720D01*
X018660Y026660D01*
X018660Y001160D01*
X018658Y001100D01*
X018653Y001039D01*
X018644Y000980D01*
X018631Y000921D01*
X018615Y000862D01*
X018595Y000805D01*
X018572Y000750D01*
X018545Y000695D01*
X018516Y000643D01*
X018483Y000592D01*
X018447Y000543D01*
X018409Y000497D01*
X018367Y000453D01*
X018323Y000411D01*
X018277Y000373D01*
X018228Y000337D01*
X018177Y000304D01*
X018125Y000275D01*
X018070Y000248D01*
X018015Y000225D01*
X017958Y000205D01*
X017899Y000189D01*
X017840Y000176D01*
X017781Y000167D01*
X017720Y000162D01*
X017660Y000160D01*
X001160Y000160D01*
X001100Y000162D01*
X001039Y000167D01*
X000980Y000176D01*
X000921Y000189D01*
X000862Y000205D01*
X000805Y000225D01*
X000750Y000248D01*
X000695Y000275D01*
X000643Y000304D01*
X000592Y000337D01*
X000543Y000373D01*
X000497Y000411D01*
X000453Y000453D01*
X000411Y000497D01*
X000373Y000543D01*
X000337Y000592D01*
X000304Y000643D01*
X000275Y000695D01*
X000248Y000750D01*
X000225Y000805D01*
X000205Y000862D01*
X000189Y000921D01*
X000176Y000980D01*
X000167Y001039D01*
X000162Y001100D01*
X000160Y001160D01*
D11*
X005160Y023196D03*
D12*
X003679Y024447D03*
X005150Y026079D03*
D13*
X009660Y023660D03*
X010660Y023660D03*
X011660Y023660D03*
X012660Y023660D03*
X013660Y023660D03*
X014660Y023660D03*
X006050Y004440D03*
X006050Y001880D03*
X004270Y001880D03*
X004270Y004440D03*
D14*
X006160Y009160D03*
X006160Y010160D03*
X007160Y010160D03*
X007160Y009160D03*
X008160Y009160D03*
X008160Y010160D03*
D15*
X009069Y004160D03*
X010251Y004160D03*
X010251Y002160D03*
X009069Y002160D03*
D16*
X001060Y001660D02*
X001062Y001709D01*
X001068Y001757D01*
X001078Y001805D01*
X001092Y001852D01*
X001109Y001898D01*
X001130Y001942D01*
X001155Y001984D01*
X001183Y002024D01*
X001215Y002062D01*
X001249Y002097D01*
X001286Y002129D01*
X001325Y002158D01*
X001367Y002184D01*
X001411Y002206D01*
X001456Y002224D01*
X001503Y002239D01*
X001550Y002250D01*
X001599Y002257D01*
X001648Y002260D01*
X001697Y002259D01*
X001745Y002254D01*
X001794Y002245D01*
X001841Y002232D01*
X001887Y002215D01*
X001931Y002195D01*
X001974Y002171D01*
X002015Y002144D01*
X002053Y002113D01*
X002089Y002080D01*
X002121Y002044D01*
X002151Y002005D01*
X002178Y001964D01*
X002201Y001920D01*
X002220Y001875D01*
X002236Y001829D01*
X002248Y001782D01*
X002256Y001733D01*
X002260Y001684D01*
X002260Y001636D01*
X002256Y001587D01*
X002248Y001538D01*
X002236Y001491D01*
X002220Y001445D01*
X002201Y001400D01*
X002178Y001356D01*
X002151Y001315D01*
X002121Y001276D01*
X002089Y001240D01*
X002053Y001207D01*
X002015Y001176D01*
X001974Y001149D01*
X001931Y001125D01*
X001887Y001105D01*
X001841Y001088D01*
X001794Y001075D01*
X001745Y001066D01*
X001697Y001061D01*
X001648Y001060D01*
X001599Y001063D01*
X001550Y001070D01*
X001503Y001081D01*
X001456Y001096D01*
X001411Y001114D01*
X001367Y001136D01*
X001325Y001162D01*
X001286Y001191D01*
X001249Y001223D01*
X001215Y001258D01*
X001183Y001296D01*
X001155Y001336D01*
X001130Y001378D01*
X001109Y001422D01*
X001092Y001468D01*
X001078Y001515D01*
X001068Y001563D01*
X001062Y001611D01*
X001060Y001660D01*
X001060Y007160D02*
X001062Y007209D01*
X001068Y007257D01*
X001078Y007305D01*
X001092Y007352D01*
X001109Y007398D01*
X001130Y007442D01*
X001155Y007484D01*
X001183Y007524D01*
X001215Y007562D01*
X001249Y007597D01*
X001286Y007629D01*
X001325Y007658D01*
X001367Y007684D01*
X001411Y007706D01*
X001456Y007724D01*
X001503Y007739D01*
X001550Y007750D01*
X001599Y007757D01*
X001648Y007760D01*
X001697Y007759D01*
X001745Y007754D01*
X001794Y007745D01*
X001841Y007732D01*
X001887Y007715D01*
X001931Y007695D01*
X001974Y007671D01*
X002015Y007644D01*
X002053Y007613D01*
X002089Y007580D01*
X002121Y007544D01*
X002151Y007505D01*
X002178Y007464D01*
X002201Y007420D01*
X002220Y007375D01*
X002236Y007329D01*
X002248Y007282D01*
X002256Y007233D01*
X002260Y007184D01*
X002260Y007136D01*
X002256Y007087D01*
X002248Y007038D01*
X002236Y006991D01*
X002220Y006945D01*
X002201Y006900D01*
X002178Y006856D01*
X002151Y006815D01*
X002121Y006776D01*
X002089Y006740D01*
X002053Y006707D01*
X002015Y006676D01*
X001974Y006649D01*
X001931Y006625D01*
X001887Y006605D01*
X001841Y006588D01*
X001794Y006575D01*
X001745Y006566D01*
X001697Y006561D01*
X001648Y006560D01*
X001599Y006563D01*
X001550Y006570D01*
X001503Y006581D01*
X001456Y006596D01*
X001411Y006614D01*
X001367Y006636D01*
X001325Y006662D01*
X001286Y006691D01*
X001249Y006723D01*
X001215Y006758D01*
X001183Y006796D01*
X001155Y006836D01*
X001130Y006878D01*
X001109Y006922D01*
X001092Y006968D01*
X001078Y007015D01*
X001068Y007063D01*
X001062Y007111D01*
X001060Y007160D01*
X001060Y026160D02*
X001062Y026209D01*
X001068Y026257D01*
X001078Y026305D01*
X001092Y026352D01*
X001109Y026398D01*
X001130Y026442D01*
X001155Y026484D01*
X001183Y026524D01*
X001215Y026562D01*
X001249Y026597D01*
X001286Y026629D01*
X001325Y026658D01*
X001367Y026684D01*
X001411Y026706D01*
X001456Y026724D01*
X001503Y026739D01*
X001550Y026750D01*
X001599Y026757D01*
X001648Y026760D01*
X001697Y026759D01*
X001745Y026754D01*
X001794Y026745D01*
X001841Y026732D01*
X001887Y026715D01*
X001931Y026695D01*
X001974Y026671D01*
X002015Y026644D01*
X002053Y026613D01*
X002089Y026580D01*
X002121Y026544D01*
X002151Y026505D01*
X002178Y026464D01*
X002201Y026420D01*
X002220Y026375D01*
X002236Y026329D01*
X002248Y026282D01*
X002256Y026233D01*
X002260Y026184D01*
X002260Y026136D01*
X002256Y026087D01*
X002248Y026038D01*
X002236Y025991D01*
X002220Y025945D01*
X002201Y025900D01*
X002178Y025856D01*
X002151Y025815D01*
X002121Y025776D01*
X002089Y025740D01*
X002053Y025707D01*
X002015Y025676D01*
X001974Y025649D01*
X001931Y025625D01*
X001887Y025605D01*
X001841Y025588D01*
X001794Y025575D01*
X001745Y025566D01*
X001697Y025561D01*
X001648Y025560D01*
X001599Y025563D01*
X001550Y025570D01*
X001503Y025581D01*
X001456Y025596D01*
X001411Y025614D01*
X001367Y025636D01*
X001325Y025662D01*
X001286Y025691D01*
X001249Y025723D01*
X001215Y025758D01*
X001183Y025796D01*
X001155Y025836D01*
X001130Y025878D01*
X001109Y025922D01*
X001092Y025968D01*
X001078Y026015D01*
X001068Y026063D01*
X001062Y026111D01*
X001060Y026160D01*
X016560Y026160D02*
X016562Y026209D01*
X016568Y026257D01*
X016578Y026305D01*
X016592Y026352D01*
X016609Y026398D01*
X016630Y026442D01*
X016655Y026484D01*
X016683Y026524D01*
X016715Y026562D01*
X016749Y026597D01*
X016786Y026629D01*
X016825Y026658D01*
X016867Y026684D01*
X016911Y026706D01*
X016956Y026724D01*
X017003Y026739D01*
X017050Y026750D01*
X017099Y026757D01*
X017148Y026760D01*
X017197Y026759D01*
X017245Y026754D01*
X017294Y026745D01*
X017341Y026732D01*
X017387Y026715D01*
X017431Y026695D01*
X017474Y026671D01*
X017515Y026644D01*
X017553Y026613D01*
X017589Y026580D01*
X017621Y026544D01*
X017651Y026505D01*
X017678Y026464D01*
X017701Y026420D01*
X017720Y026375D01*
X017736Y026329D01*
X017748Y026282D01*
X017756Y026233D01*
X017760Y026184D01*
X017760Y026136D01*
X017756Y026087D01*
X017748Y026038D01*
X017736Y025991D01*
X017720Y025945D01*
X017701Y025900D01*
X017678Y025856D01*
X017651Y025815D01*
X017621Y025776D01*
X017589Y025740D01*
X017553Y025707D01*
X017515Y025676D01*
X017474Y025649D01*
X017431Y025625D01*
X017387Y025605D01*
X017341Y025588D01*
X017294Y025575D01*
X017245Y025566D01*
X017197Y025561D01*
X017148Y025560D01*
X017099Y025563D01*
X017050Y025570D01*
X017003Y025581D01*
X016956Y025596D01*
X016911Y025614D01*
X016867Y025636D01*
X016825Y025662D01*
X016786Y025691D01*
X016749Y025723D01*
X016715Y025758D01*
X016683Y025796D01*
X016655Y025836D01*
X016630Y025878D01*
X016609Y025922D01*
X016592Y025968D01*
X016578Y026015D01*
X016568Y026063D01*
X016562Y026111D01*
X016560Y026160D01*
X016560Y007160D02*
X016562Y007209D01*
X016568Y007257D01*
X016578Y007305D01*
X016592Y007352D01*
X016609Y007398D01*
X016630Y007442D01*
X016655Y007484D01*
X016683Y007524D01*
X016715Y007562D01*
X016749Y007597D01*
X016786Y007629D01*
X016825Y007658D01*
X016867Y007684D01*
X016911Y007706D01*
X016956Y007724D01*
X017003Y007739D01*
X017050Y007750D01*
X017099Y007757D01*
X017148Y007760D01*
X017197Y007759D01*
X017245Y007754D01*
X017294Y007745D01*
X017341Y007732D01*
X017387Y007715D01*
X017431Y007695D01*
X017474Y007671D01*
X017515Y007644D01*
X017553Y007613D01*
X017589Y007580D01*
X017621Y007544D01*
X017651Y007505D01*
X017678Y007464D01*
X017701Y007420D01*
X017720Y007375D01*
X017736Y007329D01*
X017748Y007282D01*
X017756Y007233D01*
X017760Y007184D01*
X017760Y007136D01*
X017756Y007087D01*
X017748Y007038D01*
X017736Y006991D01*
X017720Y006945D01*
X017701Y006900D01*
X017678Y006856D01*
X017651Y006815D01*
X017621Y006776D01*
X017589Y006740D01*
X017553Y006707D01*
X017515Y006676D01*
X017474Y006649D01*
X017431Y006625D01*
X017387Y006605D01*
X017341Y006588D01*
X017294Y006575D01*
X017245Y006566D01*
X017197Y006561D01*
X017148Y006560D01*
X017099Y006563D01*
X017050Y006570D01*
X017003Y006581D01*
X016956Y006596D01*
X016911Y006614D01*
X016867Y006636D01*
X016825Y006662D01*
X016786Y006691D01*
X016749Y006723D01*
X016715Y006758D01*
X016683Y006796D01*
X016655Y006836D01*
X016630Y006878D01*
X016609Y006922D01*
X016592Y006968D01*
X016578Y007015D01*
X016568Y007063D01*
X016562Y007111D01*
X016560Y007160D01*
X016560Y001660D02*
X016562Y001709D01*
X016568Y001757D01*
X016578Y001805D01*
X016592Y001852D01*
X016609Y001898D01*
X016630Y001942D01*
X016655Y001984D01*
X016683Y002024D01*
X016715Y002062D01*
X016749Y002097D01*
X016786Y002129D01*
X016825Y002158D01*
X016867Y002184D01*
X016911Y002206D01*
X016956Y002224D01*
X017003Y002239D01*
X017050Y002250D01*
X017099Y002257D01*
X017148Y002260D01*
X017197Y002259D01*
X017245Y002254D01*
X017294Y002245D01*
X017341Y002232D01*
X017387Y002215D01*
X017431Y002195D01*
X017474Y002171D01*
X017515Y002144D01*
X017553Y002113D01*
X017589Y002080D01*
X017621Y002044D01*
X017651Y002005D01*
X017678Y001964D01*
X017701Y001920D01*
X017720Y001875D01*
X017736Y001829D01*
X017748Y001782D01*
X017756Y001733D01*
X017760Y001684D01*
X017760Y001636D01*
X017756Y001587D01*
X017748Y001538D01*
X017736Y001491D01*
X017720Y001445D01*
X017701Y001400D01*
X017678Y001356D01*
X017651Y001315D01*
X017621Y001276D01*
X017589Y001240D01*
X017553Y001207D01*
X017515Y001176D01*
X017474Y001149D01*
X017431Y001125D01*
X017387Y001105D01*
X017341Y001088D01*
X017294Y001075D01*
X017245Y001066D01*
X017197Y001061D01*
X017148Y001060D01*
X017099Y001063D01*
X017050Y001070D01*
X017003Y001081D01*
X016956Y001096D01*
X016911Y001114D01*
X016867Y001136D01*
X016825Y001162D01*
X016786Y001191D01*
X016749Y001223D01*
X016715Y001258D01*
X016683Y001296D01*
X016655Y001336D01*
X016630Y001378D01*
X016609Y001422D01*
X016592Y001468D01*
X016578Y001515D01*
X016568Y001563D01*
X016562Y001611D01*
X016560Y001660D01*
D17*
X012530Y014160D02*
X011790Y014160D01*
X011790Y015160D02*
X012530Y015160D01*
X012530Y016160D02*
X011790Y016160D01*
X011790Y017160D02*
X012530Y017160D01*
X012530Y018160D02*
X011790Y018160D01*
D18*
X000501Y000824D02*
X000637Y000637D01*
X000824Y000501D01*
X001044Y000429D01*
X001160Y000420D01*
X017660Y000420D01*
X017776Y000429D01*
X017996Y000501D01*
X018183Y000637D01*
X018319Y000824D01*
X018391Y001044D01*
X018400Y001160D01*
X018400Y026660D01*
X018391Y026776D01*
X018319Y026996D01*
X018183Y027183D01*
X017996Y027319D01*
X017776Y027391D01*
X017660Y027400D01*
X001160Y027400D01*
X001044Y027391D01*
X000824Y027319D01*
X000637Y027183D01*
X000501Y026996D01*
X000429Y026776D01*
X000420Y026660D01*
X000420Y001160D01*
X000429Y001044D01*
X000501Y000824D01*
X000485Y000871D02*
X001076Y000871D01*
X001162Y000798D02*
X000898Y001020D01*
X000898Y001020D01*
X000725Y001320D01*
X000725Y001320D01*
X000665Y001660D01*
X000665Y001660D01*
X000725Y002000D01*
X000725Y002000D01*
X000898Y002300D01*
X000898Y002300D01*
X001162Y002522D01*
X001487Y002640D01*
X001487Y002640D01*
X001833Y002640D01*
X002158Y002522D01*
X002158Y002522D01*
X002422Y002300D01*
X002422Y002300D01*
X002595Y002000D01*
X002595Y002000D01*
X002655Y001660D01*
X002655Y001660D01*
X002595Y001320D01*
X002595Y001320D01*
X002422Y001020D01*
X002422Y001020D01*
X002422Y001020D01*
X002158Y000798D01*
X002158Y000798D01*
X001833Y000680D01*
X001610Y000680D01*
X001487Y000680D01*
X001162Y000798D01*
X001162Y000798D01*
X001288Y000753D02*
X000553Y000753D01*
X000641Y000634D02*
X018179Y000634D01*
X018267Y000753D02*
X017532Y000753D01*
X017658Y000798D02*
X017658Y000798D01*
X017922Y001020D01*
X017922Y001020D01*
X017922Y001020D01*
X018095Y001320D01*
X018155Y001660D01*
X018095Y002000D01*
X018095Y002000D01*
X017922Y002300D01*
X017658Y002522D01*
X017658Y002522D01*
X017333Y002640D01*
X016987Y002640D01*
X016662Y002522D01*
X016398Y002300D01*
X016398Y002300D01*
X016225Y002000D01*
X016165Y001660D01*
X016225Y001320D01*
X016225Y001320D01*
X016398Y001020D01*
X016662Y000798D01*
X016662Y000798D01*
X016987Y000680D01*
X017210Y000680D01*
X017333Y000680D01*
X017658Y000798D01*
X017744Y000871D02*
X018335Y000871D01*
X018373Y000990D02*
X017886Y000990D01*
X017973Y001108D02*
X018396Y001108D01*
X018400Y001227D02*
X018041Y001227D01*
X018095Y001320D02*
X018095Y001320D01*
X018100Y001345D02*
X018400Y001345D01*
X018400Y001464D02*
X018120Y001464D01*
X018141Y001582D02*
X018400Y001582D01*
X018400Y001701D02*
X018148Y001701D01*
X018155Y001660D02*
X018155Y001660D01*
X018127Y001819D02*
X018400Y001819D01*
X018400Y001938D02*
X018106Y001938D01*
X018063Y002056D02*
X018400Y002056D01*
X018400Y002175D02*
X017995Y002175D01*
X017926Y002293D02*
X018400Y002293D01*
X018400Y002412D02*
X017789Y002412D01*
X017922Y002300D02*
X017922Y002300D01*
X017635Y002530D02*
X018400Y002530D01*
X018400Y002649D02*
X011051Y002649D01*
X011042Y002658D02*
X010892Y002720D01*
X010728Y002720D01*
X010578Y002658D01*
X010566Y002646D01*
X009927Y002646D01*
X009804Y002523D01*
X009804Y001797D01*
X009927Y001674D01*
X010574Y001674D01*
X010697Y001797D01*
X010697Y001913D01*
X010728Y001900D01*
X010892Y001900D01*
X011042Y001962D01*
X011158Y002078D01*
X011220Y002228D01*
X011220Y002392D01*
X011158Y002542D01*
X011042Y002658D01*
X011163Y002530D02*
X016685Y002530D01*
X016662Y002522D02*
X016662Y002522D01*
X016531Y002412D02*
X011212Y002412D01*
X011220Y002293D02*
X016394Y002293D01*
X016398Y002300D02*
X016398Y002300D01*
X016325Y002175D02*
X011198Y002175D01*
X011136Y002056D02*
X016257Y002056D01*
X016225Y002000D02*
X016225Y002000D01*
X016214Y001938D02*
X010982Y001938D01*
X010810Y002310D02*
X010260Y002310D01*
X010260Y002160D01*
X010251Y002160D01*
X009804Y002175D02*
X009128Y002175D01*
X009128Y002218D02*
X009466Y002218D01*
X009466Y002457D01*
X009455Y002497D01*
X009434Y002534D01*
X009404Y002564D01*
X009367Y002585D01*
X009327Y002596D01*
X009128Y002596D01*
X009128Y002218D01*
X009128Y002102D01*
X009466Y002102D01*
X009466Y001863D01*
X009455Y001823D01*
X009434Y001786D01*
X009404Y001756D01*
X009367Y001735D01*
X009327Y001724D01*
X009128Y001724D01*
X009128Y002102D01*
X009011Y002102D01*
X008673Y002102D01*
X008673Y001863D01*
X008684Y001823D01*
X008705Y001786D01*
X008735Y001756D01*
X008771Y001735D01*
X008812Y001724D01*
X009011Y001724D01*
X009011Y002102D01*
X009011Y002218D01*
X008673Y002218D01*
X008673Y002457D01*
X008684Y002497D01*
X008705Y002534D01*
X008735Y002564D01*
X008771Y002585D01*
X008812Y002596D01*
X009011Y002596D01*
X009011Y002218D01*
X009128Y002218D01*
X009128Y002293D02*
X009011Y002293D01*
X009011Y002175D02*
X006556Y002175D01*
X006542Y002209D02*
X006379Y002372D01*
X006165Y002460D01*
X005935Y002460D01*
X005721Y002372D01*
X005558Y002209D01*
X005470Y001995D01*
X005470Y001765D01*
X005558Y001551D01*
X005721Y001388D01*
X005935Y001300D01*
X006165Y001300D01*
X006379Y001388D01*
X006542Y001551D01*
X006630Y001765D01*
X006630Y001995D01*
X006542Y002209D01*
X006457Y002293D02*
X008673Y002293D01*
X008673Y002412D02*
X006282Y002412D01*
X006605Y002056D02*
X008673Y002056D01*
X008673Y001938D02*
X006630Y001938D01*
X006630Y001819D02*
X008686Y001819D01*
X009011Y001819D02*
X009128Y001819D01*
X009128Y001938D02*
X009011Y001938D01*
X009011Y002056D02*
X009128Y002056D01*
X009128Y002412D02*
X009011Y002412D01*
X009011Y002530D02*
X009128Y002530D01*
X009436Y002530D02*
X009812Y002530D01*
X009804Y002412D02*
X009466Y002412D01*
X009466Y002293D02*
X009804Y002293D01*
X009804Y002056D02*
X009466Y002056D01*
X009466Y001938D02*
X009804Y001938D01*
X009804Y001819D02*
X009453Y001819D01*
X009901Y001701D02*
X006603Y001701D01*
X006554Y001582D02*
X016179Y001582D01*
X016165Y001660D02*
X016165Y001660D01*
X016172Y001701D02*
X010600Y001701D01*
X010697Y001819D02*
X016193Y001819D01*
X016200Y001464D02*
X006454Y001464D01*
X006274Y001345D02*
X016220Y001345D01*
X016279Y001227D02*
X002541Y001227D01*
X002600Y001345D02*
X005826Y001345D01*
X005646Y001464D02*
X004598Y001464D01*
X004615Y001476D02*
X004674Y001535D01*
X004723Y001602D01*
X004761Y001677D01*
X004787Y001756D01*
X004800Y001838D01*
X004800Y001840D01*
X004310Y001840D01*
X004310Y001920D01*
X004230Y001920D01*
X004230Y002410D01*
X004228Y002410D01*
X004146Y002397D01*
X004067Y002371D01*
X003992Y002333D01*
X003925Y002284D01*
X003866Y002225D01*
X003817Y002158D01*
X003779Y002083D01*
X003753Y002004D01*
X003740Y001922D01*
X003740Y001920D01*
X004230Y001920D01*
X004230Y001840D01*
X003740Y001840D01*
X003740Y001838D01*
X003753Y001756D01*
X003779Y001677D01*
X003817Y001602D01*
X003866Y001535D01*
X003925Y001476D01*
X003992Y001427D01*
X004067Y001389D01*
X004146Y001363D01*
X004228Y001350D01*
X004230Y001350D01*
X004230Y001840D01*
X004310Y001840D01*
X004310Y001350D01*
X004312Y001350D01*
X004394Y001363D01*
X004473Y001389D01*
X004548Y001427D01*
X004615Y001476D01*
X004709Y001582D02*
X005546Y001582D01*
X005497Y001701D02*
X004769Y001701D01*
X004797Y001819D02*
X005470Y001819D01*
X005470Y001938D02*
X004797Y001938D01*
X004800Y001922D02*
X004787Y002004D01*
X004761Y002083D01*
X004723Y002158D01*
X004674Y002225D01*
X004615Y002284D01*
X004548Y002333D01*
X004473Y002371D01*
X004394Y002397D01*
X004312Y002410D01*
X004310Y002410D01*
X004310Y001920D01*
X004800Y001920D01*
X004800Y001922D01*
X004770Y002056D02*
X005495Y002056D01*
X005544Y002175D02*
X004711Y002175D01*
X004603Y002293D02*
X005643Y002293D01*
X005818Y002412D02*
X002289Y002412D01*
X002426Y002293D02*
X003937Y002293D01*
X003829Y002175D02*
X002495Y002175D01*
X002563Y002056D02*
X003770Y002056D01*
X003743Y001938D02*
X002606Y001938D01*
X002627Y001819D02*
X003743Y001819D01*
X003771Y001701D02*
X002648Y001701D01*
X002641Y001582D02*
X003831Y001582D01*
X003942Y001464D02*
X002620Y001464D01*
X002473Y001108D02*
X016347Y001108D01*
X016398Y001020D02*
X016398Y001020D01*
X016434Y000990D02*
X002386Y000990D01*
X002244Y000871D02*
X016576Y000871D01*
X016788Y000753D02*
X002032Y000753D01*
X000934Y000990D02*
X000447Y000990D01*
X000424Y001108D02*
X000847Y001108D01*
X000779Y001227D02*
X000420Y001227D01*
X000420Y001345D02*
X000720Y001345D01*
X000700Y001464D02*
X000420Y001464D01*
X000420Y001582D02*
X000679Y001582D01*
X000672Y001701D02*
X000420Y001701D01*
X000420Y001819D02*
X000693Y001819D01*
X000714Y001938D02*
X000420Y001938D01*
X000420Y002056D02*
X000757Y002056D01*
X000825Y002175D02*
X000420Y002175D01*
X000420Y002293D02*
X000894Y002293D01*
X001031Y002412D02*
X000420Y002412D01*
X000420Y002530D02*
X001185Y002530D01*
X000420Y002649D02*
X010569Y002649D01*
X010574Y003674D02*
X010697Y003797D01*
X010697Y004215D01*
X012382Y005900D01*
X012492Y005900D01*
X012642Y005962D01*
X012758Y006078D01*
X012820Y006228D01*
X012820Y006392D01*
X012758Y006542D01*
X012642Y006658D01*
X012492Y006720D01*
X012328Y006720D01*
X012178Y006658D01*
X012062Y006542D01*
X012000Y006392D01*
X012000Y006282D01*
X010364Y004646D01*
X009927Y004646D01*
X009804Y004523D01*
X009804Y003797D01*
X009927Y003674D01*
X010574Y003674D01*
X010614Y003715D02*
X018400Y003715D01*
X018400Y003597D02*
X000420Y003597D01*
X000420Y003715D02*
X009887Y003715D01*
X009804Y003834D02*
X009458Y003834D01*
X009455Y003823D02*
X009466Y003863D01*
X009466Y004102D01*
X009128Y004102D01*
X009128Y004218D01*
X009466Y004218D01*
X009466Y004457D01*
X009455Y004497D01*
X009434Y004534D01*
X009404Y004564D01*
X009367Y004585D01*
X009327Y004596D01*
X009128Y004596D01*
X009128Y004218D01*
X009011Y004218D01*
X009011Y004102D01*
X008673Y004102D01*
X008673Y003863D01*
X008684Y003823D01*
X008705Y003786D01*
X008735Y003756D01*
X008771Y003735D01*
X008812Y003724D01*
X009011Y003724D01*
X009011Y004102D01*
X009128Y004102D01*
X009128Y003724D01*
X009327Y003724D01*
X009367Y003735D01*
X009404Y003756D01*
X009434Y003786D01*
X009455Y003823D01*
X009466Y003952D02*
X009804Y003952D01*
X009804Y004071D02*
X009466Y004071D01*
X009466Y004308D02*
X009804Y004308D01*
X009804Y004426D02*
X009466Y004426D01*
X009423Y004545D02*
X009826Y004545D01*
X009804Y004189D02*
X009128Y004189D01*
X009069Y004160D02*
X009060Y004160D01*
X009060Y006760D01*
X007560Y008260D01*
X007160Y008610D02*
X007160Y009160D01*
X007160Y008610D02*
X008360Y008610D01*
X008710Y008960D01*
X008710Y015360D01*
X008610Y015460D01*
X008530Y015870D02*
X008530Y015890D01*
X008850Y015890D01*
X008928Y015812D01*
X009078Y015750D01*
X009242Y015750D01*
X009392Y015812D01*
X009508Y015928D01*
X009570Y016078D01*
X009570Y016242D01*
X009508Y016392D01*
X009392Y016508D01*
X009242Y016570D01*
X009078Y016570D01*
X008928Y016508D01*
X008850Y016430D01*
X008612Y016430D01*
X008682Y016500D01*
X008792Y016500D01*
X008942Y016562D01*
X009058Y016678D01*
X009117Y016821D01*
X010990Y014948D01*
X010990Y014906D01*
X011031Y014807D01*
X011324Y014514D01*
X011298Y014489D01*
X011210Y014275D01*
X011210Y014045D01*
X011298Y013831D01*
X011461Y013668D01*
X011675Y013580D01*
X012645Y013580D01*
X012859Y013668D01*
X013022Y013831D01*
X013110Y014045D01*
X013110Y014275D01*
X013022Y014489D01*
X012859Y014652D01*
X012771Y014688D01*
X012808Y014707D01*
X012875Y014756D01*
X012934Y014815D01*
X012983Y014882D01*
X013021Y014957D01*
X013047Y015036D01*
X013059Y015110D01*
X012210Y015110D01*
X012210Y015210D01*
X013059Y015210D01*
X013047Y015284D01*
X013021Y015363D01*
X012983Y015438D01*
X012934Y015505D01*
X012875Y015564D01*
X012808Y015613D01*
X012771Y015632D01*
X012859Y015668D01*
X013022Y015831D01*
X013110Y016045D01*
X013110Y016275D01*
X013022Y016489D01*
X012859Y016652D01*
X012839Y016660D01*
X012859Y016668D01*
X013022Y016831D01*
X013110Y017045D01*
X013110Y017275D01*
X013022Y017489D01*
X012859Y017652D01*
X012839Y017660D01*
X012859Y017668D01*
X013022Y017831D01*
X013110Y018045D01*
X013110Y018275D01*
X013022Y018489D01*
X012859Y018652D01*
X012645Y018740D01*
X011675Y018740D01*
X011461Y018652D01*
X011298Y018489D01*
X011210Y018275D01*
X011210Y018045D01*
X011298Y017831D01*
X011461Y017668D01*
X011481Y017660D01*
X011461Y017652D01*
X011298Y017489D01*
X011210Y017275D01*
X011210Y017045D01*
X011298Y016831D01*
X011461Y016668D01*
X011481Y016660D01*
X011461Y016652D01*
X011298Y016489D01*
X011210Y016275D01*
X011210Y016045D01*
X011298Y015831D01*
X011461Y015668D01*
X011549Y015632D01*
X011512Y015613D01*
X011445Y015564D01*
X011386Y015505D01*
X011337Y015438D01*
X011312Y015390D01*
X009470Y017232D01*
X009470Y017342D01*
X009408Y017492D01*
X009292Y017608D01*
X009142Y017670D01*
X008978Y017670D01*
X008828Y017608D01*
X008712Y017492D01*
X008650Y017342D01*
X008650Y017320D01*
X008628Y017320D01*
X008478Y017258D01*
X008362Y017142D01*
X008300Y016992D01*
X008300Y016882D01*
X008130Y016712D01*
X008130Y018748D01*
X012486Y023104D01*
X012545Y023080D01*
X012775Y023080D01*
X012989Y023168D01*
X013152Y023331D01*
X013160Y023351D01*
X013168Y023331D01*
X013331Y023168D01*
X013545Y023080D01*
X013775Y023080D01*
X013989Y023168D01*
X014152Y023331D01*
X014160Y023351D01*
X014168Y023331D01*
X014331Y023168D01*
X014545Y023080D01*
X014775Y023080D01*
X014989Y023168D01*
X015152Y023331D01*
X015240Y023545D01*
X015240Y023775D01*
X015152Y023989D01*
X014989Y024152D01*
X014775Y024240D01*
X014545Y024240D01*
X014331Y024152D01*
X014168Y023989D01*
X014160Y023969D01*
X014152Y023989D01*
X013989Y024152D01*
X013930Y024176D01*
X013930Y024264D01*
X013889Y024363D01*
X013813Y024439D01*
X013714Y024480D01*
X009406Y024480D01*
X009307Y024439D01*
X009231Y024363D01*
X006707Y021839D01*
X006631Y021763D01*
X006590Y021664D01*
X006590Y014320D01*
X006512Y014242D01*
X006450Y014092D01*
X006450Y013928D01*
X006512Y013778D01*
X006628Y013662D01*
X006778Y013600D01*
X006942Y013600D01*
X007092Y013662D01*
X007208Y013778D01*
X007270Y013928D01*
X007270Y014092D01*
X007208Y014242D01*
X007150Y014300D01*
X007292Y014300D01*
X007442Y014362D01*
X007558Y014478D01*
X007620Y014628D01*
X007620Y014738D01*
X007790Y014908D01*
X007790Y012172D01*
X006358Y010740D01*
X005920Y010740D01*
X005580Y010400D01*
X005580Y009920D01*
X005840Y009660D01*
X005580Y009400D01*
X005580Y008920D01*
X005920Y008580D01*
X006400Y008580D01*
X006660Y008840D01*
X006890Y008610D01*
X006890Y008556D01*
X006931Y008457D01*
X007007Y008381D01*
X007106Y008340D01*
X008414Y008340D01*
X008513Y008381D01*
X008589Y008457D01*
X008939Y008807D01*
X008980Y008906D01*
X008980Y015282D01*
X009020Y015378D01*
X009020Y015542D01*
X008958Y015692D01*
X008842Y015808D01*
X008692Y015870D01*
X008530Y015870D01*
X008848Y015802D02*
X008953Y015802D01*
X008961Y015684D02*
X010255Y015684D01*
X010136Y015802D02*
X009367Y015802D01*
X009500Y015921D02*
X010018Y015921D01*
X009899Y016039D02*
X009554Y016039D01*
X009570Y016158D02*
X009781Y016158D01*
X009662Y016276D02*
X009556Y016276D01*
X009544Y016395D02*
X009505Y016395D01*
X009425Y016513D02*
X009379Y016513D01*
X009307Y016632D02*
X009011Y016632D01*
X008941Y016513D02*
X008823Y016513D01*
X008710Y016910D02*
X008060Y016260D01*
X008060Y012060D01*
X006160Y010160D01*
X005741Y009759D02*
X000420Y009759D01*
X000420Y009877D02*
X005623Y009877D01*
X005580Y009996D02*
X000420Y009996D01*
X000420Y010114D02*
X005580Y010114D01*
X005580Y010233D02*
X000420Y010233D01*
X000420Y010351D02*
X005580Y010351D01*
X005649Y010470D02*
X000420Y010470D01*
X000420Y010588D02*
X005768Y010588D01*
X005886Y010707D02*
X000420Y010707D01*
X000420Y010825D02*
X006443Y010825D01*
X006562Y010944D02*
X000420Y010944D01*
X000420Y011062D02*
X006680Y011062D01*
X006799Y011181D02*
X000420Y011181D01*
X000420Y011299D02*
X006917Y011299D01*
X007036Y011418D02*
X000420Y011418D01*
X000420Y011536D02*
X007154Y011536D01*
X007273Y011655D02*
X000420Y011655D01*
X000420Y011773D02*
X007391Y011773D01*
X007510Y011892D02*
X000420Y011892D01*
X000420Y012010D02*
X007628Y012010D01*
X007747Y012129D02*
X000420Y012129D01*
X000420Y012247D02*
X007790Y012247D01*
X007790Y012366D02*
X000420Y012366D01*
X000420Y012484D02*
X007790Y012484D01*
X007790Y012603D02*
X000420Y012603D01*
X000420Y012721D02*
X007790Y012721D01*
X007790Y012840D02*
X000420Y012840D01*
X000420Y012958D02*
X007790Y012958D01*
X007790Y013077D02*
X000420Y013077D01*
X000420Y013195D02*
X007790Y013195D01*
X007790Y013314D02*
X000420Y013314D01*
X000420Y013432D02*
X007790Y013432D01*
X007790Y013551D02*
X000420Y013551D01*
X000420Y013669D02*
X006621Y013669D01*
X006508Y013788D02*
X000420Y013788D01*
X000420Y013906D02*
X006459Y013906D01*
X006450Y014025D02*
X000420Y014025D01*
X000420Y014143D02*
X006471Y014143D01*
X006532Y014262D02*
X000420Y014262D01*
X000420Y014380D02*
X006590Y014380D01*
X006590Y014499D02*
X000420Y014499D01*
X000420Y014617D02*
X006590Y014617D01*
X006590Y014736D02*
X000420Y014736D01*
X000420Y014854D02*
X006590Y014854D01*
X006590Y014973D02*
X000420Y014973D01*
X000420Y015091D02*
X006590Y015091D01*
X006590Y015210D02*
X000420Y015210D01*
X000420Y015328D02*
X006590Y015328D01*
X006590Y015447D02*
X000420Y015447D01*
X000420Y015565D02*
X006590Y015565D01*
X006590Y015684D02*
X000420Y015684D01*
X000420Y015802D02*
X006590Y015802D01*
X006590Y015921D02*
X000420Y015921D01*
X000420Y016039D02*
X006590Y016039D01*
X006590Y016158D02*
X000420Y016158D01*
X000420Y016276D02*
X006590Y016276D01*
X006590Y016395D02*
X000420Y016395D01*
X000420Y016513D02*
X006590Y016513D01*
X006590Y016632D02*
X000420Y016632D01*
X000420Y016750D02*
X006590Y016750D01*
X006590Y016869D02*
X000420Y016869D01*
X000420Y016987D02*
X006590Y016987D01*
X006590Y017106D02*
X000420Y017106D01*
X000420Y017224D02*
X006590Y017224D01*
X006590Y017343D02*
X000420Y017343D01*
X000420Y017461D02*
X006590Y017461D01*
X006590Y017580D02*
X000420Y017580D01*
X000420Y017698D02*
X006590Y017698D01*
X006590Y017817D02*
X000420Y017817D01*
X000420Y017935D02*
X006590Y017935D01*
X006590Y018054D02*
X000420Y018054D01*
X000420Y018172D02*
X006590Y018172D01*
X006590Y018291D02*
X000420Y018291D01*
X000420Y018409D02*
X006590Y018409D01*
X006590Y018528D02*
X000420Y018528D01*
X000420Y018646D02*
X006590Y018646D01*
X006590Y018765D02*
X000420Y018765D01*
X000420Y018883D02*
X006590Y018883D01*
X006590Y019002D02*
X000420Y019002D01*
X000420Y019120D02*
X006590Y019120D01*
X006590Y019239D02*
X000420Y019239D01*
X000420Y019357D02*
X006590Y019357D01*
X006590Y019476D02*
X000420Y019476D01*
X000420Y019594D02*
X006590Y019594D01*
X006590Y019713D02*
X000420Y019713D01*
X000420Y019831D02*
X006590Y019831D01*
X006590Y019950D02*
X000420Y019950D01*
X000420Y020068D02*
X006590Y020068D01*
X006590Y020187D02*
X000420Y020187D01*
X000420Y020305D02*
X006590Y020305D01*
X006590Y020424D02*
X000420Y020424D01*
X000420Y020542D02*
X006590Y020542D01*
X006590Y020661D02*
X000420Y020661D01*
X000420Y020779D02*
X006590Y020779D01*
X006590Y020898D02*
X000420Y020898D01*
X000420Y021016D02*
X006590Y021016D01*
X006590Y021135D02*
X000420Y021135D01*
X000420Y021253D02*
X006590Y021253D01*
X006590Y021372D02*
X000420Y021372D01*
X000420Y021490D02*
X006590Y021490D01*
X006590Y021609D02*
X000420Y021609D01*
X000420Y021727D02*
X006616Y021727D01*
X006707Y021839D02*
X006707Y021839D01*
X006714Y021846D02*
X000420Y021846D01*
X000420Y021964D02*
X006832Y021964D01*
X006951Y022083D02*
X000420Y022083D01*
X000420Y022201D02*
X004856Y022201D01*
X004759Y022227D02*
X005023Y022156D01*
X005297Y022156D01*
X005561Y022227D01*
X005799Y022364D01*
X005992Y022558D01*
X006129Y022795D01*
X006200Y023059D01*
X006200Y023333D01*
X006129Y023598D01*
X005992Y023835D01*
X005799Y024028D01*
X005561Y024165D01*
X005297Y024236D01*
X005023Y024236D01*
X004759Y024165D01*
X004566Y024054D01*
X004577Y024076D01*
X004613Y024178D01*
X004637Y024285D01*
X004648Y024387D01*
X003739Y024387D01*
X003739Y023478D01*
X003842Y023490D01*
X003948Y023514D01*
X004051Y023550D01*
X004149Y023597D01*
X004214Y023638D01*
X004191Y023598D01*
X004120Y023333D01*
X004120Y023059D01*
X004191Y022795D01*
X004328Y022558D01*
X004521Y022364D01*
X004759Y022227D01*
X004599Y022320D02*
X000420Y022320D01*
X000420Y022438D02*
X004448Y022438D01*
X004329Y022557D02*
X000420Y022557D01*
X000420Y022675D02*
X004260Y022675D01*
X004192Y022794D02*
X000420Y022794D01*
X000420Y022912D02*
X004160Y022912D01*
X004128Y023031D02*
X000420Y023031D01*
X000420Y023149D02*
X004120Y023149D01*
X004120Y023268D02*
X000420Y023268D01*
X000420Y023386D02*
X004134Y023386D01*
X004166Y023505D02*
X003907Y023505D01*
X003739Y023505D02*
X003619Y023505D01*
X003619Y023478D02*
X003619Y024387D01*
X003739Y024387D01*
X003739Y024507D01*
X004648Y024507D01*
X004637Y024610D01*
X004613Y024716D01*
X004577Y024819D01*
X004529Y024917D01*
X004471Y025010D01*
X004403Y025095D01*
X004326Y025172D01*
X004241Y025240D01*
X004149Y025298D01*
X004051Y025345D01*
X003948Y025381D01*
X003842Y025405D01*
X003739Y025417D01*
X003739Y024507D01*
X003619Y024507D01*
X003619Y024387D01*
X002710Y024387D01*
X002721Y024285D01*
X002745Y024178D01*
X002781Y024076D01*
X002829Y023977D01*
X002887Y023885D01*
X002955Y023800D01*
X003032Y023723D01*
X003117Y023655D01*
X003209Y023597D01*
X003307Y023550D01*
X003410Y023514D01*
X003516Y023490D01*
X003619Y023478D01*
X003619Y023623D02*
X003739Y023623D01*
X003739Y023742D02*
X003619Y023742D01*
X003619Y023860D02*
X003739Y023860D01*
X003739Y023979D02*
X003619Y023979D01*
X003619Y024097D02*
X003739Y024097D01*
X003739Y024216D02*
X003619Y024216D01*
X003619Y024334D02*
X003739Y024334D01*
X003739Y024453D02*
X009340Y024453D01*
X009231Y024363D02*
X009231Y024363D01*
X009202Y024334D02*
X004642Y024334D01*
X004621Y024216D02*
X004946Y024216D01*
X004640Y024097D02*
X004584Y024097D01*
X004641Y024571D02*
X018400Y024571D01*
X018400Y024453D02*
X013780Y024453D01*
X013901Y024334D02*
X018400Y024334D01*
X018400Y024216D02*
X014834Y024216D01*
X015043Y024097D02*
X018400Y024097D01*
X018400Y023979D02*
X015156Y023979D01*
X015205Y023860D02*
X018400Y023860D01*
X018400Y023742D02*
X015240Y023742D01*
X015240Y023623D02*
X018400Y023623D01*
X018400Y023505D02*
X015223Y023505D01*
X015174Y023386D02*
X018400Y023386D01*
X018400Y023268D02*
X015088Y023268D01*
X014942Y023149D02*
X018400Y023149D01*
X018400Y023031D02*
X012412Y023031D01*
X012294Y022912D02*
X018400Y022912D01*
X018400Y022794D02*
X012175Y022794D01*
X012057Y022675D02*
X018400Y022675D01*
X018400Y022557D02*
X011938Y022557D01*
X011820Y022438D02*
X018400Y022438D01*
X018400Y022320D02*
X011701Y022320D01*
X011583Y022201D02*
X018400Y022201D01*
X018400Y022083D02*
X011464Y022083D01*
X011346Y021964D02*
X018400Y021964D01*
X018400Y021846D02*
X011227Y021846D01*
X011109Y021727D02*
X018400Y021727D01*
X018400Y021609D02*
X010990Y021609D01*
X010872Y021490D02*
X018400Y021490D01*
X018400Y021372D02*
X010753Y021372D01*
X010635Y021253D02*
X018400Y021253D01*
X018400Y021135D02*
X010516Y021135D01*
X010398Y021016D02*
X018400Y021016D01*
X018400Y020898D02*
X010279Y020898D01*
X010161Y020779D02*
X018400Y020779D01*
X018400Y020661D02*
X010042Y020661D01*
X009924Y020542D02*
X018400Y020542D01*
X018400Y020424D02*
X009805Y020424D01*
X009687Y020305D02*
X018400Y020305D01*
X018400Y020187D02*
X009568Y020187D01*
X009450Y020068D02*
X018400Y020068D01*
X018400Y019950D02*
X009331Y019950D01*
X009213Y019831D02*
X018400Y019831D01*
X018400Y019713D02*
X009094Y019713D01*
X008976Y019594D02*
X018400Y019594D01*
X018400Y019476D02*
X008857Y019476D01*
X008739Y019357D02*
X018400Y019357D01*
X018400Y019239D02*
X008620Y019239D01*
X008502Y019120D02*
X018400Y019120D01*
X018400Y019002D02*
X008383Y019002D01*
X008265Y018883D02*
X018400Y018883D01*
X018400Y018765D02*
X008146Y018765D01*
X008130Y018646D02*
X011456Y018646D01*
X011337Y018528D02*
X008130Y018528D01*
X008130Y018409D02*
X011265Y018409D01*
X011216Y018291D02*
X008130Y018291D01*
X008130Y018172D02*
X011210Y018172D01*
X011210Y018054D02*
X008130Y018054D01*
X008130Y017935D02*
X011255Y017935D01*
X011313Y017817D02*
X008130Y017817D01*
X008130Y017698D02*
X011432Y017698D01*
X011389Y017580D02*
X009320Y017580D01*
X009421Y017461D02*
X011287Y017461D01*
X011238Y017343D02*
X009470Y017343D01*
X009478Y017224D02*
X011210Y017224D01*
X011210Y017106D02*
X009596Y017106D01*
X009715Y016987D02*
X011234Y016987D01*
X011283Y016869D02*
X009833Y016869D01*
X009952Y016750D02*
X011380Y016750D01*
X011441Y016632D02*
X010070Y016632D01*
X010189Y016513D02*
X011323Y016513D01*
X011259Y016395D02*
X010307Y016395D01*
X010426Y016276D02*
X011210Y016276D01*
X011210Y016158D02*
X010544Y016158D01*
X010663Y016039D02*
X011212Y016039D01*
X011261Y015921D02*
X010781Y015921D01*
X010900Y015802D02*
X011328Y015802D01*
X011446Y015684D02*
X011018Y015684D01*
X011137Y015565D02*
X011446Y015565D01*
X011343Y015447D02*
X011255Y015447D01*
X011260Y015060D02*
X011260Y014960D01*
X012060Y014160D01*
X012160Y014160D01*
X012859Y013669D02*
X018400Y013669D01*
X018400Y013551D02*
X010320Y013551D01*
X010320Y013478D02*
X010320Y013642D01*
X010258Y013792D01*
X010142Y013908D01*
X009992Y013970D01*
X009828Y013970D01*
X009678Y013908D01*
X009562Y013792D01*
X009500Y013642D01*
X009500Y013570D01*
X009478Y013570D01*
X009328Y013508D01*
X009212Y013392D01*
X009150Y013242D01*
X009150Y013078D01*
X009212Y012928D01*
X009290Y012850D01*
X009290Y012506D01*
X009331Y012407D01*
X009407Y012331D01*
X010750Y010988D01*
X010750Y010878D01*
X010812Y010728D01*
X010928Y010612D01*
X011078Y010550D01*
X011242Y010550D01*
X011392Y010612D01*
X011508Y010728D01*
X011570Y010878D01*
X011570Y011042D01*
X011508Y011192D01*
X011392Y011308D01*
X011242Y011370D01*
X011132Y011370D01*
X009830Y012672D01*
X009830Y012850D01*
X009859Y012879D01*
X011750Y010988D01*
X011750Y010878D01*
X011812Y010728D01*
X011928Y010612D01*
X012078Y010550D01*
X012242Y010550D01*
X012392Y010612D01*
X012508Y010728D01*
X012570Y010878D01*
X012570Y011042D01*
X012508Y011192D01*
X012392Y011308D01*
X012242Y011370D01*
X012132Y011370D01*
X010216Y013286D01*
X010258Y013328D01*
X010320Y013478D01*
X010301Y013432D02*
X018400Y013432D01*
X018400Y013314D02*
X010243Y013314D01*
X010307Y013195D02*
X018400Y013195D01*
X018400Y013077D02*
X010425Y013077D01*
X010544Y012958D02*
X018400Y012958D01*
X018400Y012840D02*
X010662Y012840D01*
X010781Y012721D02*
X018400Y012721D01*
X018400Y012603D02*
X010899Y012603D01*
X011018Y012484D02*
X018400Y012484D01*
X018400Y012366D02*
X011136Y012366D01*
X011255Y012247D02*
X018400Y012247D01*
X018400Y012129D02*
X011373Y012129D01*
X011492Y012010D02*
X018400Y012010D01*
X018400Y011892D02*
X011610Y011892D01*
X011729Y011773D02*
X018400Y011773D01*
X018400Y011655D02*
X011847Y011655D01*
X011966Y011536D02*
X018400Y011536D01*
X018400Y011418D02*
X012084Y011418D01*
X012401Y011299D02*
X018400Y011299D01*
X018400Y011181D02*
X012512Y011181D01*
X012562Y011062D02*
X018400Y011062D01*
X018400Y010944D02*
X012570Y010944D01*
X012548Y010825D02*
X018400Y010825D01*
X018400Y010707D02*
X012486Y010707D01*
X012333Y010588D02*
X018400Y010588D01*
X018400Y010470D02*
X008980Y010470D01*
X008980Y010588D02*
X010987Y010588D01*
X010834Y010707D02*
X008980Y010707D01*
X008980Y010825D02*
X010772Y010825D01*
X010750Y010944D02*
X008980Y010944D01*
X008980Y011062D02*
X010676Y011062D01*
X010558Y011181D02*
X008980Y011181D01*
X008980Y011299D02*
X010439Y011299D01*
X010321Y011418D02*
X008980Y011418D01*
X008980Y011536D02*
X010202Y011536D01*
X010084Y011655D02*
X008980Y011655D01*
X008980Y011773D02*
X009965Y011773D01*
X009847Y011892D02*
X008980Y011892D01*
X008980Y012010D02*
X009728Y012010D01*
X009610Y012129D02*
X008980Y012129D01*
X008980Y012247D02*
X009491Y012247D01*
X009373Y012366D02*
X008980Y012366D01*
X008980Y012484D02*
X009299Y012484D01*
X009290Y012603D02*
X008980Y012603D01*
X008980Y012721D02*
X009290Y012721D01*
X009290Y012840D02*
X008980Y012840D01*
X008980Y012958D02*
X009200Y012958D01*
X009151Y013077D02*
X008980Y013077D01*
X008980Y013195D02*
X009150Y013195D01*
X009180Y013314D02*
X008980Y013314D01*
X008980Y013432D02*
X009252Y013432D01*
X009431Y013551D02*
X008980Y013551D01*
X008980Y013669D02*
X009511Y013669D01*
X009560Y013788D02*
X008980Y013788D01*
X008980Y013906D02*
X009676Y013906D01*
X009910Y013560D02*
X009910Y013210D01*
X012160Y010960D01*
X011987Y010588D02*
X011333Y010588D01*
X011486Y010707D02*
X011834Y010707D01*
X011772Y010825D02*
X011548Y010825D01*
X011570Y010944D02*
X011750Y010944D01*
X011676Y011062D02*
X011562Y011062D01*
X011558Y011181D02*
X011512Y011181D01*
X011439Y011299D02*
X011401Y011299D01*
X011321Y011418D02*
X011084Y011418D01*
X010966Y011536D02*
X011202Y011536D01*
X011084Y011655D02*
X010847Y011655D01*
X010729Y011773D02*
X010965Y011773D01*
X010847Y011892D02*
X010610Y011892D01*
X010492Y012010D02*
X010728Y012010D01*
X010610Y012129D02*
X010373Y012129D01*
X010255Y012247D02*
X010491Y012247D01*
X010373Y012366D02*
X010136Y012366D01*
X010018Y012484D02*
X010254Y012484D01*
X010136Y012603D02*
X009899Y012603D01*
X009830Y012721D02*
X010017Y012721D01*
X009899Y012840D02*
X009830Y012840D01*
X009560Y012560D02*
X009560Y013160D01*
X009560Y012560D02*
X011160Y010960D01*
X011461Y013669D02*
X010309Y013669D01*
X010260Y013788D02*
X011342Y013788D01*
X011267Y013906D02*
X010144Y013906D01*
X010847Y015091D02*
X008980Y015091D01*
X008980Y014973D02*
X010966Y014973D01*
X011012Y014854D02*
X008980Y014854D01*
X008980Y014736D02*
X011103Y014736D01*
X011221Y014617D02*
X008980Y014617D01*
X008980Y014499D02*
X011308Y014499D01*
X011253Y014380D02*
X008980Y014380D01*
X008980Y014262D02*
X011210Y014262D01*
X011210Y014143D02*
X008980Y014143D01*
X008980Y014025D02*
X011218Y014025D01*
X011260Y015060D02*
X009060Y017260D01*
X008800Y017580D02*
X008130Y017580D01*
X008130Y017461D02*
X008699Y017461D01*
X008650Y017343D02*
X008130Y017343D01*
X008130Y017224D02*
X008444Y017224D01*
X008347Y017106D02*
X008130Y017106D01*
X008130Y016987D02*
X008300Y016987D01*
X008287Y016869D02*
X008130Y016869D01*
X008130Y016750D02*
X008168Y016750D01*
X008260Y016160D02*
X008260Y011260D01*
X007160Y010160D01*
X006689Y008811D02*
X006631Y008811D01*
X006512Y008692D02*
X006808Y008692D01*
X006890Y008574D02*
X000420Y008574D01*
X000420Y008692D02*
X005808Y008692D01*
X005689Y008811D02*
X000420Y008811D01*
X000420Y008929D02*
X005580Y008929D01*
X005580Y009048D02*
X000420Y009048D01*
X000420Y009166D02*
X005580Y009166D01*
X005580Y009285D02*
X000420Y009285D01*
X000420Y009403D02*
X005583Y009403D01*
X005701Y009522D02*
X000420Y009522D01*
X000420Y009640D02*
X005820Y009640D01*
X006933Y008455D02*
X000420Y008455D01*
X000420Y008337D02*
X018400Y008337D01*
X018400Y008455D02*
X008587Y008455D01*
X008705Y008574D02*
X018400Y008574D01*
X018400Y008692D02*
X008824Y008692D01*
X008940Y008811D02*
X018400Y008811D01*
X018400Y008929D02*
X008980Y008929D01*
X008980Y009048D02*
X018400Y009048D01*
X018400Y009166D02*
X008980Y009166D01*
X008980Y009285D02*
X018400Y009285D01*
X018400Y009403D02*
X008980Y009403D01*
X008980Y009522D02*
X018400Y009522D01*
X018400Y009640D02*
X008980Y009640D01*
X008980Y009759D02*
X018400Y009759D01*
X018400Y009877D02*
X008980Y009877D01*
X008980Y009996D02*
X018400Y009996D01*
X018400Y010114D02*
X008980Y010114D01*
X008980Y010233D02*
X018400Y010233D01*
X018400Y010351D02*
X008980Y010351D01*
X007790Y013669D02*
X007099Y013669D01*
X007212Y013788D02*
X007790Y013788D01*
X007790Y013906D02*
X007261Y013906D01*
X007270Y014025D02*
X007790Y014025D01*
X007790Y014143D02*
X007249Y014143D01*
X007188Y014262D02*
X007790Y014262D01*
X007790Y014380D02*
X007460Y014380D01*
X007566Y014499D02*
X007790Y014499D01*
X007790Y014617D02*
X007615Y014617D01*
X007620Y014736D02*
X007790Y014736D01*
X007790Y014854D02*
X007736Y014854D01*
X007860Y015360D02*
X007210Y014710D01*
X007238Y015120D02*
X007130Y015120D01*
X007130Y021498D01*
X009149Y023517D01*
X009169Y023457D01*
X009207Y023382D01*
X009256Y023315D01*
X009315Y023256D01*
X009382Y023207D01*
X009457Y023169D01*
X009536Y023143D01*
X009618Y023130D01*
X009620Y023130D01*
X009620Y023620D01*
X009700Y023620D01*
X009700Y023700D01*
X010190Y023700D01*
X010620Y023700D01*
X010620Y023620D01*
X010700Y023620D01*
X010700Y023130D01*
X010702Y023130D01*
X010784Y023143D01*
X010863Y023169D01*
X010938Y023207D01*
X011005Y023256D01*
X011064Y023315D01*
X011113Y023382D01*
X011132Y023419D01*
X011168Y023331D01*
X011331Y023168D01*
X011545Y023080D01*
X011698Y023080D01*
X007631Y019013D01*
X007590Y018914D01*
X007590Y015472D01*
X007238Y015120D01*
X007328Y015210D02*
X007130Y015210D01*
X007130Y015328D02*
X007446Y015328D01*
X007565Y015447D02*
X007130Y015447D01*
X007130Y015565D02*
X007590Y015565D01*
X007590Y015684D02*
X007130Y015684D01*
X007130Y015802D02*
X007590Y015802D01*
X007590Y015921D02*
X007130Y015921D01*
X007130Y016039D02*
X007590Y016039D01*
X007590Y016158D02*
X007130Y016158D01*
X007130Y016276D02*
X007590Y016276D01*
X007590Y016395D02*
X007130Y016395D01*
X007130Y016513D02*
X007590Y016513D01*
X007590Y016632D02*
X007130Y016632D01*
X007130Y016750D02*
X007590Y016750D01*
X007590Y016869D02*
X007130Y016869D01*
X007130Y016987D02*
X007590Y016987D01*
X007590Y017106D02*
X007130Y017106D01*
X007130Y017224D02*
X007590Y017224D01*
X007590Y017343D02*
X007130Y017343D01*
X007130Y017461D02*
X007590Y017461D01*
X007590Y017580D02*
X007130Y017580D01*
X007130Y017698D02*
X007590Y017698D01*
X007590Y017817D02*
X007130Y017817D01*
X007130Y017935D02*
X007590Y017935D01*
X007590Y018054D02*
X007130Y018054D01*
X007130Y018172D02*
X007590Y018172D01*
X007590Y018291D02*
X007130Y018291D01*
X007130Y018409D02*
X007590Y018409D01*
X007590Y018528D02*
X007130Y018528D01*
X007130Y018646D02*
X007590Y018646D01*
X007590Y018765D02*
X007130Y018765D01*
X007130Y018883D02*
X007590Y018883D01*
X007626Y019002D02*
X007130Y019002D01*
X007130Y019120D02*
X007738Y019120D01*
X007857Y019239D02*
X007130Y019239D01*
X007130Y019357D02*
X007975Y019357D01*
X008094Y019476D02*
X007130Y019476D01*
X007130Y019594D02*
X008212Y019594D01*
X008331Y019713D02*
X007130Y019713D01*
X007130Y019831D02*
X008449Y019831D01*
X008568Y019950D02*
X007130Y019950D01*
X007130Y020068D02*
X008686Y020068D01*
X008805Y020187D02*
X007130Y020187D01*
X007130Y020305D02*
X008923Y020305D01*
X009042Y020424D02*
X007130Y020424D01*
X007130Y020542D02*
X009160Y020542D01*
X009279Y020661D02*
X007130Y020661D01*
X007130Y020779D02*
X009397Y020779D01*
X009516Y020898D02*
X007130Y020898D01*
X007130Y021016D02*
X009634Y021016D01*
X009753Y021135D02*
X007130Y021135D01*
X007130Y021253D02*
X009871Y021253D01*
X009990Y021372D02*
X007130Y021372D01*
X007130Y021490D02*
X010108Y021490D01*
X010227Y021609D02*
X007240Y021609D01*
X007359Y021727D02*
X010345Y021727D01*
X010464Y021846D02*
X007477Y021846D01*
X007596Y021964D02*
X010582Y021964D01*
X010701Y022083D02*
X007714Y022083D01*
X007833Y022201D02*
X010819Y022201D01*
X010938Y022320D02*
X007951Y022320D01*
X008070Y022438D02*
X011056Y022438D01*
X011175Y022557D02*
X008188Y022557D01*
X008307Y022675D02*
X011293Y022675D01*
X011412Y022794D02*
X008425Y022794D01*
X008544Y022912D02*
X011530Y022912D01*
X011649Y023031D02*
X008662Y023031D01*
X008781Y023149D02*
X009517Y023149D01*
X009620Y023149D02*
X009700Y023149D01*
X009700Y023130D02*
X009702Y023130D01*
X009784Y023143D01*
X009863Y023169D01*
X009938Y023207D01*
X010005Y023256D01*
X010064Y023315D01*
X010113Y023382D01*
X010151Y023457D01*
X010160Y023484D01*
X010169Y023457D01*
X010207Y023382D01*
X010256Y023315D01*
X010315Y023256D01*
X010382Y023207D01*
X010457Y023169D01*
X010536Y023143D01*
X010618Y023130D01*
X010620Y023130D01*
X010620Y023620D01*
X009700Y023620D01*
X009700Y023130D01*
X009803Y023149D02*
X010517Y023149D01*
X010620Y023149D02*
X010700Y023149D01*
X010803Y023149D02*
X011378Y023149D01*
X011232Y023268D02*
X011017Y023268D01*
X011115Y023386D02*
X011146Y023386D01*
X010700Y023386D02*
X010620Y023386D01*
X010620Y023268D02*
X010700Y023268D01*
X010700Y023505D02*
X010620Y023505D01*
X010620Y023623D02*
X009700Y023623D01*
X009700Y023505D02*
X009620Y023505D01*
X009620Y023386D02*
X009700Y023386D01*
X009700Y023268D02*
X009620Y023268D01*
X009303Y023268D02*
X008899Y023268D01*
X009018Y023386D02*
X009205Y023386D01*
X009153Y023505D02*
X009136Y023505D01*
X008728Y023860D02*
X005967Y023860D01*
X006046Y023742D02*
X008610Y023742D01*
X008491Y023623D02*
X006114Y023623D01*
X006154Y023505D02*
X008373Y023505D01*
X008254Y023386D02*
X006186Y023386D01*
X006200Y023268D02*
X008136Y023268D01*
X008017Y023149D02*
X006200Y023149D01*
X006192Y023031D02*
X007899Y023031D01*
X007780Y022912D02*
X006160Y022912D01*
X006128Y022794D02*
X007662Y022794D01*
X007543Y022675D02*
X006060Y022675D01*
X005991Y022557D02*
X007425Y022557D01*
X007306Y022438D02*
X005872Y022438D01*
X005721Y022320D02*
X007188Y022320D01*
X007069Y022201D02*
X005464Y022201D01*
X005848Y023979D02*
X008847Y023979D01*
X008965Y024097D02*
X005680Y024097D01*
X005374Y024216D02*
X009084Y024216D01*
X009460Y024210D02*
X013660Y024210D01*
X013660Y023660D01*
X013232Y023268D02*
X013088Y023268D01*
X012942Y023149D02*
X013378Y023149D01*
X013942Y023149D02*
X014378Y023149D01*
X014232Y023268D02*
X014088Y023268D01*
X014156Y023979D02*
X014164Y023979D01*
X014277Y024097D02*
X014043Y024097D01*
X013930Y024216D02*
X014486Y024216D01*
X012660Y023660D02*
X007860Y018860D01*
X007860Y015360D01*
X008260Y016160D02*
X009160Y016160D01*
X009188Y016750D02*
X009088Y016750D01*
X009010Y015565D02*
X010373Y015565D01*
X010492Y015447D02*
X009020Y015447D01*
X008999Y015328D02*
X010610Y015328D01*
X010729Y015210D02*
X008980Y015210D01*
X006860Y014010D02*
X006860Y021610D01*
X009460Y024210D01*
X010115Y023386D02*
X010205Y023386D01*
X010303Y023268D02*
X010017Y023268D01*
X012864Y018646D02*
X018400Y018646D01*
X018400Y018528D02*
X012983Y018528D01*
X013055Y018409D02*
X018400Y018409D01*
X018400Y018291D02*
X013104Y018291D01*
X013110Y018172D02*
X018400Y018172D01*
X018400Y018054D02*
X013110Y018054D01*
X013065Y017935D02*
X018400Y017935D01*
X018400Y017817D02*
X013007Y017817D01*
X012888Y017698D02*
X018400Y017698D01*
X018400Y017580D02*
X012931Y017580D01*
X013033Y017461D02*
X018400Y017461D01*
X018400Y017343D02*
X013082Y017343D01*
X013110Y017224D02*
X018400Y017224D01*
X018400Y017106D02*
X013110Y017106D01*
X013086Y016987D02*
X018400Y016987D01*
X018400Y016869D02*
X013037Y016869D01*
X012940Y016750D02*
X018400Y016750D01*
X018400Y016632D02*
X012879Y016632D01*
X012997Y016513D02*
X018400Y016513D01*
X018400Y016395D02*
X013061Y016395D01*
X013110Y016276D02*
X018400Y016276D01*
X018400Y016158D02*
X013110Y016158D01*
X013108Y016039D02*
X018400Y016039D01*
X018400Y015921D02*
X013059Y015921D01*
X012992Y015802D02*
X018400Y015802D01*
X018400Y015684D02*
X012874Y015684D01*
X012874Y015565D02*
X018400Y015565D01*
X018400Y015447D02*
X012977Y015447D01*
X013033Y015328D02*
X018400Y015328D01*
X018400Y015210D02*
X012210Y015210D01*
X012847Y014736D02*
X018400Y014736D01*
X018400Y014854D02*
X012963Y014854D01*
X013026Y014973D02*
X018400Y014973D01*
X018400Y015091D02*
X013056Y015091D01*
X012893Y014617D02*
X018400Y014617D01*
X018400Y014499D02*
X013012Y014499D01*
X013067Y014380D02*
X018400Y014380D01*
X018400Y014262D02*
X013110Y014262D01*
X013110Y014143D02*
X018400Y014143D01*
X018400Y014025D02*
X013102Y014025D01*
X013053Y013906D02*
X018400Y013906D01*
X018400Y013788D02*
X012978Y013788D01*
X016662Y008022D02*
X016398Y007800D01*
X016398Y007800D01*
X016225Y007500D01*
X016165Y007160D01*
X016225Y006820D01*
X016225Y006820D01*
X016398Y006520D01*
X016662Y006298D01*
X016662Y006298D01*
X016987Y006180D01*
X017110Y006180D01*
X017333Y006180D01*
X017658Y006298D01*
X017922Y006520D01*
X017922Y006520D01*
X017922Y006520D01*
X018095Y006820D01*
X018155Y007160D01*
X018095Y007500D01*
X018095Y007500D01*
X017922Y007800D01*
X017658Y008022D01*
X017658Y008022D01*
X017333Y008140D01*
X016987Y008140D01*
X016662Y008022D01*
X016662Y008022D01*
X016614Y007981D02*
X002206Y007981D01*
X002158Y008022D02*
X002158Y008022D01*
X002422Y007800D01*
X002422Y007800D01*
X002595Y007500D01*
X002595Y007500D01*
X002655Y007160D01*
X002655Y007160D01*
X002595Y006820D01*
X002595Y006820D01*
X002422Y006520D01*
X002422Y006520D01*
X002422Y006520D01*
X002158Y006298D01*
X002158Y006298D01*
X001833Y006180D01*
X001710Y006180D01*
X001487Y006180D01*
X001162Y006298D01*
X001162Y006298D01*
X000898Y006520D01*
X000898Y006520D01*
X000725Y006820D01*
X000725Y006820D01*
X000665Y007160D01*
X000665Y007160D01*
X000725Y007500D01*
X000725Y007500D01*
X000898Y007800D01*
X000898Y007800D01*
X001162Y008022D01*
X001162Y008022D01*
X001487Y008140D01*
X001833Y008140D01*
X002158Y008022D01*
X001944Y008100D02*
X016876Y008100D01*
X016473Y007863D02*
X002347Y007863D01*
X002454Y007744D02*
X016366Y007744D01*
X016398Y007800D02*
X016398Y007800D01*
X016297Y007626D02*
X002523Y007626D01*
X002591Y007507D02*
X016229Y007507D01*
X016225Y007500D02*
X016225Y007500D01*
X016205Y007389D02*
X002615Y007389D01*
X002636Y007270D02*
X016184Y007270D01*
X016165Y007160D02*
X016165Y007160D01*
X016166Y007152D02*
X002654Y007152D01*
X002633Y007033D02*
X016187Y007033D01*
X016208Y006915D02*
X002612Y006915D01*
X002581Y006796D02*
X016239Y006796D01*
X016307Y006678D02*
X012594Y006678D01*
X012741Y006559D02*
X016375Y006559D01*
X016398Y006520D02*
X016398Y006520D01*
X016493Y006441D02*
X012800Y006441D01*
X012820Y006322D02*
X016634Y006322D01*
X016923Y006204D02*
X012810Y006204D01*
X012761Y006085D02*
X018400Y006085D01*
X018400Y005967D02*
X012646Y005967D01*
X012330Y005848D02*
X018400Y005848D01*
X018400Y005730D02*
X012211Y005730D01*
X012093Y005611D02*
X018400Y005611D01*
X018400Y005493D02*
X011974Y005493D01*
X011856Y005374D02*
X018400Y005374D01*
X018400Y005256D02*
X011737Y005256D01*
X011619Y005137D02*
X018400Y005137D01*
X018400Y005019D02*
X011500Y005019D01*
X011382Y004900D02*
X018400Y004900D01*
X018400Y004782D02*
X011263Y004782D01*
X011145Y004663D02*
X018400Y004663D01*
X018400Y004545D02*
X011026Y004545D01*
X010908Y004426D02*
X018400Y004426D01*
X018400Y004308D02*
X010789Y004308D01*
X010697Y004189D02*
X018400Y004189D01*
X018400Y004071D02*
X010697Y004071D01*
X010697Y003952D02*
X018400Y003952D01*
X018400Y003834D02*
X010697Y003834D01*
X010260Y004160D02*
X010251Y004160D01*
X010260Y004160D02*
X012410Y006310D01*
X012226Y006678D02*
X002513Y006678D01*
X002445Y006559D02*
X012079Y006559D01*
X012020Y006441D02*
X002327Y006441D01*
X002186Y006322D02*
X012000Y006322D01*
X011922Y006204D02*
X001897Y006204D01*
X001423Y006204D02*
X000420Y006204D01*
X000420Y006322D02*
X001134Y006322D01*
X000993Y006441D02*
X000420Y006441D01*
X000420Y006559D02*
X000875Y006559D01*
X000807Y006678D02*
X000420Y006678D01*
X000420Y006796D02*
X000739Y006796D01*
X000708Y006915D02*
X000420Y006915D01*
X000420Y007033D02*
X000687Y007033D01*
X000666Y007152D02*
X000420Y007152D01*
X000420Y007270D02*
X000684Y007270D01*
X000705Y007389D02*
X000420Y007389D01*
X000420Y007507D02*
X000729Y007507D01*
X000797Y007626D02*
X000420Y007626D01*
X000420Y007744D02*
X000866Y007744D01*
X000898Y007800D02*
X000898Y007800D01*
X000973Y007863D02*
X000420Y007863D01*
X000420Y007981D02*
X001114Y007981D01*
X001376Y008100D02*
X000420Y008100D01*
X000420Y008218D02*
X018400Y008218D01*
X018400Y008100D02*
X017444Y008100D01*
X017706Y007981D02*
X018400Y007981D01*
X018400Y007863D02*
X017847Y007863D01*
X017922Y007800D02*
X017922Y007800D01*
X017954Y007744D02*
X018400Y007744D01*
X018400Y007626D02*
X018023Y007626D01*
X018091Y007507D02*
X018400Y007507D01*
X018400Y007389D02*
X018115Y007389D01*
X018136Y007270D02*
X018400Y007270D01*
X018400Y007152D02*
X018154Y007152D01*
X018155Y007160D02*
X018155Y007160D01*
X018133Y007033D02*
X018400Y007033D01*
X018400Y006915D02*
X018112Y006915D01*
X018095Y006820D02*
X018095Y006820D01*
X018081Y006796D02*
X018400Y006796D01*
X018400Y006678D02*
X018013Y006678D01*
X017945Y006559D02*
X018400Y006559D01*
X018400Y006441D02*
X017827Y006441D01*
X017686Y006322D02*
X018400Y006322D01*
X018400Y006204D02*
X017397Y006204D01*
X017658Y006298D02*
X017658Y006298D01*
X018400Y003478D02*
X000420Y003478D01*
X000420Y003360D02*
X018400Y003360D01*
X018400Y003241D02*
X000420Y003241D01*
X000420Y003123D02*
X018400Y003123D01*
X018400Y003004D02*
X000420Y003004D01*
X000420Y002886D02*
X018400Y002886D01*
X018400Y002767D02*
X000420Y002767D01*
X000420Y003834D02*
X008681Y003834D01*
X008673Y003952D02*
X006382Y003952D01*
X006379Y003948D02*
X006542Y004111D01*
X006630Y004325D01*
X006630Y004555D01*
X006542Y004769D01*
X006379Y004932D01*
X006165Y005020D01*
X005935Y005020D01*
X005721Y004932D01*
X005558Y004769D01*
X005470Y004555D01*
X005470Y004325D01*
X005558Y004111D01*
X005721Y003948D01*
X005935Y003860D01*
X006165Y003860D01*
X006379Y003948D01*
X006501Y004071D02*
X008673Y004071D01*
X008673Y004218D02*
X009011Y004218D01*
X009011Y004596D01*
X008812Y004596D01*
X008771Y004585D01*
X008735Y004564D01*
X008705Y004534D01*
X008684Y004497D01*
X008673Y004457D01*
X008673Y004218D01*
X008673Y004308D02*
X006623Y004308D01*
X006630Y004426D02*
X008673Y004426D01*
X008716Y004545D02*
X006630Y004545D01*
X006585Y004663D02*
X010381Y004663D01*
X010500Y004782D02*
X006529Y004782D01*
X006410Y004900D02*
X010618Y004900D01*
X010737Y005019D02*
X006169Y005019D01*
X005931Y005019D02*
X000420Y005019D01*
X000420Y005137D02*
X010855Y005137D01*
X010974Y005256D02*
X000420Y005256D01*
X000420Y005374D02*
X011092Y005374D01*
X011211Y005493D02*
X000420Y005493D01*
X000420Y005611D02*
X011329Y005611D01*
X011448Y005730D02*
X000420Y005730D01*
X000420Y005848D02*
X011566Y005848D01*
X011685Y005967D02*
X000420Y005967D01*
X000420Y006085D02*
X011803Y006085D01*
X009128Y004545D02*
X009011Y004545D01*
X009011Y004426D02*
X009128Y004426D01*
X009128Y004308D02*
X009011Y004308D01*
X009011Y004189D02*
X006574Y004189D01*
X005718Y003952D02*
X004480Y003952D01*
X004473Y003949D02*
X004548Y003987D01*
X004615Y004036D01*
X004674Y004095D01*
X004723Y004162D01*
X004761Y004237D01*
X004787Y004316D01*
X004800Y004398D01*
X004800Y004400D01*
X004310Y004400D01*
X004310Y004480D01*
X004230Y004480D01*
X004230Y004970D01*
X004228Y004970D01*
X004146Y004957D01*
X004067Y004931D01*
X003992Y004893D01*
X003925Y004844D01*
X003866Y004785D01*
X003817Y004718D01*
X003779Y004643D01*
X003753Y004564D01*
X003740Y004482D01*
X003740Y004480D01*
X004230Y004480D01*
X004230Y004400D01*
X003740Y004400D01*
X003740Y004398D01*
X003753Y004316D01*
X003779Y004237D01*
X003817Y004162D01*
X003866Y004095D01*
X003925Y004036D01*
X003992Y003987D01*
X004067Y003949D01*
X004146Y003923D01*
X004228Y003910D01*
X004230Y003910D01*
X004230Y004400D01*
X004310Y004400D01*
X004310Y003910D01*
X004312Y003910D01*
X004394Y003923D01*
X004473Y003949D01*
X004310Y003952D02*
X004230Y003952D01*
X004230Y004071D02*
X004310Y004071D01*
X004310Y004189D02*
X004230Y004189D01*
X004230Y004308D02*
X004310Y004308D01*
X004310Y004426D02*
X005470Y004426D01*
X005470Y004545D02*
X004790Y004545D01*
X004787Y004564D02*
X004761Y004643D01*
X004723Y004718D01*
X004674Y004785D01*
X004615Y004844D01*
X004548Y004893D01*
X004473Y004931D01*
X004394Y004957D01*
X004312Y004970D01*
X004310Y004970D01*
X004310Y004480D01*
X004800Y004480D01*
X004800Y004482D01*
X004787Y004564D01*
X004751Y004663D02*
X005515Y004663D01*
X005571Y004782D02*
X004677Y004782D01*
X004535Y004900D02*
X005690Y004900D01*
X005477Y004308D02*
X004784Y004308D01*
X004737Y004189D02*
X005526Y004189D01*
X005599Y004071D02*
X004650Y004071D01*
X004230Y004426D02*
X000420Y004426D01*
X000420Y004308D02*
X003756Y004308D01*
X003803Y004189D02*
X000420Y004189D01*
X000420Y004071D02*
X003890Y004071D01*
X004060Y003952D02*
X000420Y003952D01*
X000420Y004545D02*
X003750Y004545D01*
X003789Y004663D02*
X000420Y004663D01*
X000420Y004782D02*
X003863Y004782D01*
X004005Y004900D02*
X000420Y004900D01*
X002135Y002530D02*
X008703Y002530D01*
X009011Y003834D02*
X009128Y003834D01*
X009128Y003952D02*
X009011Y003952D01*
X009011Y004071D02*
X009128Y004071D01*
X004310Y004545D02*
X004230Y004545D01*
X004230Y004663D02*
X004310Y004663D01*
X004310Y004782D02*
X004230Y004782D01*
X004230Y004900D02*
X004310Y004900D01*
X004310Y002293D02*
X004230Y002293D01*
X004230Y002175D02*
X004310Y002175D01*
X004310Y002056D02*
X004230Y002056D01*
X004230Y001938D02*
X004310Y001938D01*
X004310Y001819D02*
X004230Y001819D01*
X004230Y001701D02*
X004310Y001701D01*
X004310Y001582D02*
X004230Y001582D01*
X004230Y001464D02*
X004310Y001464D01*
X000804Y000516D02*
X018016Y000516D01*
X017333Y000680D02*
X017333Y000680D01*
X003451Y023505D02*
X000420Y023505D01*
X000420Y023623D02*
X003168Y023623D01*
X003013Y023742D02*
X000420Y023742D01*
X000420Y023860D02*
X002907Y023860D01*
X002828Y023979D02*
X000420Y023979D01*
X000420Y024097D02*
X002774Y024097D01*
X002737Y024216D02*
X000420Y024216D01*
X000420Y024334D02*
X002716Y024334D01*
X002710Y024507D02*
X003619Y024507D01*
X003619Y025417D01*
X003516Y025405D01*
X003410Y025381D01*
X003307Y025345D01*
X003209Y025298D01*
X003117Y025240D01*
X003032Y025172D01*
X002955Y025095D01*
X002887Y025010D01*
X002829Y024917D01*
X002781Y024819D01*
X002745Y024716D01*
X002721Y024610D01*
X002710Y024507D01*
X002717Y024571D02*
X000420Y024571D01*
X000420Y024453D02*
X003619Y024453D01*
X003619Y024571D02*
X003739Y024571D01*
X003739Y024690D02*
X003619Y024690D01*
X003619Y024808D02*
X003739Y024808D01*
X003739Y024927D02*
X003619Y024927D01*
X003619Y025045D02*
X003739Y025045D01*
X003739Y025164D02*
X003619Y025164D01*
X003619Y025282D02*
X003739Y025282D01*
X003739Y025401D02*
X003619Y025401D01*
X003496Y025401D02*
X002280Y025401D01*
X002158Y025298D02*
X002422Y025520D01*
X002422Y025520D01*
X002422Y025520D01*
X002595Y025820D01*
X002655Y026160D01*
X002595Y026500D01*
X002595Y026500D01*
X002422Y026800D01*
X002158Y027022D01*
X002158Y027022D01*
X001833Y027140D01*
X001487Y027140D01*
X001162Y027022D01*
X000898Y026800D01*
X000898Y026800D01*
X000725Y026500D01*
X000665Y026160D01*
X000725Y025820D01*
X000725Y025820D01*
X000898Y025520D01*
X001162Y025298D01*
X001162Y025298D01*
X001487Y025180D01*
X001610Y025180D01*
X001833Y025180D01*
X002158Y025298D01*
X002158Y025298D01*
X002113Y025282D02*
X003184Y025282D01*
X003023Y025164D02*
X000420Y025164D01*
X000420Y025282D02*
X001207Y025282D01*
X001040Y025401D02*
X000420Y025401D01*
X000420Y025519D02*
X000899Y025519D01*
X000898Y025520D02*
X000898Y025520D01*
X000830Y025638D02*
X000420Y025638D01*
X000420Y025756D02*
X000762Y025756D01*
X000715Y025875D02*
X000420Y025875D01*
X000420Y025993D02*
X000694Y025993D01*
X000673Y026112D02*
X000420Y026112D01*
X000420Y026230D02*
X000677Y026230D01*
X000665Y026160D02*
X000665Y026160D01*
X000698Y026349D02*
X000420Y026349D01*
X000420Y026467D02*
X000719Y026467D01*
X000725Y026500D02*
X000725Y026500D01*
X000774Y026586D02*
X000420Y026586D01*
X000423Y026704D02*
X000843Y026704D01*
X000898Y026800D02*
X000898Y026800D01*
X000925Y026823D02*
X000444Y026823D01*
X000483Y026941D02*
X001066Y026941D01*
X001162Y027022D02*
X001162Y027022D01*
X001266Y027060D02*
X000547Y027060D01*
X000633Y027178D02*
X018187Y027178D01*
X018273Y027060D02*
X017554Y027060D01*
X017658Y027022D02*
X017333Y027140D01*
X016987Y027140D01*
X016662Y027022D01*
X016398Y026800D01*
X016398Y026800D01*
X016225Y026500D01*
X016165Y026160D01*
X016225Y025820D01*
X016225Y025820D01*
X016398Y025520D01*
X016662Y025298D01*
X016662Y025298D01*
X016987Y025180D01*
X017210Y025180D01*
X017333Y025180D01*
X017658Y025298D01*
X017922Y025520D01*
X017922Y025520D01*
X017922Y025520D01*
X018095Y025820D01*
X018155Y026160D01*
X018095Y026500D01*
X018095Y026500D01*
X017922Y026800D01*
X017658Y027022D01*
X017658Y027022D01*
X017754Y026941D02*
X018337Y026941D01*
X018376Y026823D02*
X017895Y026823D01*
X017922Y026800D02*
X017922Y026800D01*
X017977Y026704D02*
X018397Y026704D01*
X018400Y026586D02*
X018046Y026586D01*
X018101Y026467D02*
X018400Y026467D01*
X018400Y026349D02*
X018122Y026349D01*
X018143Y026230D02*
X018400Y026230D01*
X018400Y026112D02*
X018147Y026112D01*
X018155Y026160D02*
X018155Y026160D01*
X018126Y025993D02*
X018400Y025993D01*
X018400Y025875D02*
X018105Y025875D01*
X018095Y025820D02*
X018095Y025820D01*
X018058Y025756D02*
X018400Y025756D01*
X018400Y025638D02*
X017990Y025638D01*
X017921Y025519D02*
X018400Y025519D01*
X018400Y025401D02*
X017780Y025401D01*
X017658Y025298D02*
X017658Y025298D01*
X017613Y025282D02*
X018400Y025282D01*
X018400Y025164D02*
X005472Y025164D01*
X005522Y025181D02*
X005620Y025228D01*
X005712Y025286D01*
X005797Y025354D01*
X005874Y025431D01*
X005942Y025516D01*
X006000Y025609D01*
X006048Y025707D01*
X006084Y025810D01*
X006108Y025916D01*
X006119Y026019D01*
X005210Y026019D01*
X005210Y026139D01*
X005090Y026139D01*
X005090Y027048D01*
X004987Y027036D01*
X004881Y027012D01*
X004778Y026976D01*
X004680Y026929D01*
X004588Y026871D01*
X004503Y026803D01*
X004426Y026726D01*
X004358Y026641D01*
X004300Y026548D01*
X004252Y026450D01*
X004216Y026347D01*
X004192Y026241D01*
X004181Y026139D01*
X005090Y026139D01*
X005090Y026019D01*
X004181Y026019D01*
X004192Y025916D01*
X004216Y025810D01*
X004252Y025707D01*
X004300Y025609D01*
X004358Y025516D01*
X004426Y025431D01*
X004503Y025354D01*
X004588Y025286D01*
X004680Y025228D01*
X004778Y025181D01*
X004881Y025145D01*
X004987Y025121D01*
X005090Y025109D01*
X005090Y026018D01*
X005210Y026018D01*
X005210Y025109D01*
X005313Y025121D01*
X005419Y025145D01*
X005522Y025181D01*
X005706Y025282D02*
X016707Y025282D01*
X016540Y025401D02*
X005844Y025401D01*
X005944Y025519D02*
X016399Y025519D01*
X016398Y025520D02*
X016398Y025520D01*
X016330Y025638D02*
X006014Y025638D01*
X006065Y025756D02*
X016262Y025756D01*
X016215Y025875D02*
X006098Y025875D01*
X006117Y025993D02*
X016194Y025993D01*
X016173Y026112D02*
X005210Y026112D01*
X005210Y026139D02*
X006119Y026139D01*
X006108Y026241D01*
X006084Y026347D01*
X006048Y026450D01*
X006000Y026548D01*
X005942Y026641D01*
X005874Y026726D01*
X005797Y026803D01*
X005712Y026871D01*
X005620Y026929D01*
X005522Y026976D01*
X005419Y027012D01*
X005313Y027036D01*
X005210Y027048D01*
X005210Y026139D01*
X005210Y026230D02*
X005090Y026230D01*
X005090Y026112D02*
X002647Y026112D01*
X002655Y026160D02*
X002655Y026160D01*
X002643Y026230D02*
X004191Y026230D01*
X004217Y026349D02*
X002622Y026349D01*
X002601Y026467D02*
X004260Y026467D01*
X004323Y026586D02*
X002546Y026586D01*
X002477Y026704D02*
X004408Y026704D01*
X004527Y026823D02*
X002395Y026823D01*
X002422Y026800D02*
X002422Y026800D01*
X002254Y026941D02*
X004705Y026941D01*
X005090Y026941D02*
X005210Y026941D01*
X005210Y026823D02*
X005090Y026823D01*
X005090Y026704D02*
X005210Y026704D01*
X005210Y026586D02*
X005090Y026586D01*
X005090Y026467D02*
X005210Y026467D01*
X005210Y026349D02*
X005090Y026349D01*
X005090Y025993D02*
X005210Y025993D01*
X005210Y025875D02*
X005090Y025875D01*
X005090Y025756D02*
X005210Y025756D01*
X005210Y025638D02*
X005090Y025638D01*
X005090Y025519D02*
X005210Y025519D01*
X005210Y025401D02*
X005090Y025401D01*
X005090Y025282D02*
X005210Y025282D01*
X005210Y025164D02*
X005090Y025164D01*
X004828Y025164D02*
X004335Y025164D01*
X004443Y025045D02*
X018400Y025045D01*
X018400Y024927D02*
X004524Y024927D01*
X004581Y024808D02*
X018400Y024808D01*
X018400Y024690D02*
X004619Y024690D01*
X004594Y025282D02*
X004174Y025282D01*
X004356Y025519D02*
X002421Y025519D01*
X002490Y025638D02*
X004286Y025638D01*
X004235Y025756D02*
X002558Y025756D01*
X002595Y025820D02*
X002595Y025820D01*
X002605Y025875D02*
X004202Y025875D01*
X004183Y025993D02*
X002626Y025993D01*
X002054Y027060D02*
X016766Y027060D01*
X016662Y027022D02*
X016662Y027022D01*
X016566Y026941D02*
X005595Y026941D01*
X005773Y026823D02*
X016425Y026823D01*
X016398Y026800D02*
X016398Y026800D01*
X016343Y026704D02*
X005892Y026704D01*
X005977Y026586D02*
X016274Y026586D01*
X016225Y026500D02*
X016225Y026500D01*
X016219Y026467D02*
X006040Y026467D01*
X006083Y026349D02*
X016198Y026349D01*
X016177Y026230D02*
X006109Y026230D01*
X004456Y025401D02*
X003862Y025401D01*
X002915Y025045D02*
X000420Y025045D01*
X000420Y024927D02*
X002835Y024927D01*
X002778Y024808D02*
X000420Y024808D01*
X000420Y024690D02*
X002739Y024690D01*
X004190Y023623D02*
X004206Y023623D01*
X000793Y027297D02*
X018027Y027297D01*
X017333Y025180D02*
X017333Y025180D01*
X016165Y026160D02*
X016165Y026160D01*
D19*
X009060Y017260D03*
X008710Y016910D03*
X009160Y016160D03*
X008610Y015460D03*
X007210Y014710D03*
X006860Y014010D03*
X009560Y013160D03*
X009910Y013560D03*
X011160Y010960D03*
X012160Y010960D03*
X012410Y006310D03*
X010810Y002310D03*
X007560Y008260D03*
M02*
