G75*
G70*
%OFA0B0*%
%FSLAX24Y24*%
%IPPOS*%
%LPD*%
%AMOC8*
5,1,8,0,0,1.08239X$1,22.5*
%
%ADD10C,0.0220*%
%ADD11C,0.0080*%
%ADD12C,0.0050*%
%ADD13C,0.0060*%
%ADD14R,0.0300X0.0180*%
D10*
X003648Y014160D02*
X003672Y014160D01*
X002160Y019148D02*
X002160Y019172D01*
X014310Y020998D02*
X014310Y021022D01*
D11*
X008410Y010660D02*
X007910Y010660D01*
X007660Y010410D01*
X007660Y008910D01*
X007910Y008660D01*
X008410Y008660D01*
X008660Y008910D01*
X008660Y010410D01*
X008410Y010660D01*
X007660Y010410D02*
X007410Y010660D01*
X006910Y010660D01*
X006660Y010410D01*
X006660Y008910D01*
X006910Y008660D01*
X007410Y008660D01*
X007660Y008910D01*
X006660Y008910D02*
X006410Y008660D01*
X005910Y008660D01*
X005660Y008910D01*
X005660Y010410D01*
X005910Y010660D01*
X006410Y010660D01*
X006660Y010410D01*
X006410Y010792D02*
X005910Y010792D01*
X005416Y014951D02*
X004904Y014951D01*
X004904Y016369D02*
X005416Y016369D01*
X003144Y016132D02*
X003144Y015188D01*
X002554Y015188D01*
X002554Y016132D02*
X003144Y016132D01*
X002720Y017491D02*
X002720Y017829D01*
X002266Y017341D02*
X002054Y017341D01*
X001600Y017491D02*
X001600Y017829D01*
X001766Y016132D02*
X001333Y016132D01*
X001176Y015975D01*
X001176Y015345D01*
X001333Y015188D01*
X001766Y015188D01*
X001766Y020188D02*
X001333Y020188D01*
X001176Y020345D01*
X001176Y020975D01*
X001333Y021132D01*
X001766Y021132D01*
X001910Y021860D02*
X002410Y021860D01*
X002554Y021132D02*
X003144Y021132D01*
X003144Y020188D01*
X002554Y020188D01*
X002410Y022460D02*
X001910Y022460D01*
D12*
X002010Y021060D02*
X002010Y020260D01*
X002010Y016060D02*
X002010Y015260D01*
D13*
X006280Y016040D02*
X006280Y013420D01*
X006420Y013280D01*
X009040Y013280D01*
X009040Y016040D01*
X006280Y016040D01*
X006439Y013580D02*
X006441Y013603D01*
X006447Y013626D01*
X006456Y013647D01*
X006469Y013667D01*
X006485Y013684D01*
X006503Y013698D01*
X006523Y013709D01*
X006545Y013717D01*
X006568Y013721D01*
X006592Y013721D01*
X006615Y013717D01*
X006637Y013709D01*
X006657Y013698D01*
X006675Y013684D01*
X006691Y013667D01*
X006704Y013647D01*
X006713Y013626D01*
X006719Y013603D01*
X006721Y013580D01*
X006719Y013557D01*
X006713Y013534D01*
X006704Y013513D01*
X006691Y013493D01*
X006675Y013476D01*
X006657Y013462D01*
X006637Y013451D01*
X006615Y013443D01*
X006592Y013439D01*
X006568Y013439D01*
X006545Y013443D01*
X006523Y013451D01*
X006503Y013462D01*
X006485Y013476D01*
X006469Y013493D01*
X006456Y013513D01*
X006447Y013534D01*
X006441Y013557D01*
X006439Y013580D01*
D14*
X005160Y006660D03*
X013160Y006660D03*
X013160Y002660D03*
M02*
