G75*
G70*
%OFA0B0*%
%FSLAX24Y24*%
%IPPOS*%
%LPD*%
%AMOC8*
5,1,8,0,0,1.08239X$1,22.5*
%
%ADD10R,0.0474X0.0513*%
%ADD11R,0.0631X0.0710*%
%ADD12C,0.1740*%
%ADD13C,0.1700*%
%ADD14R,0.0580X0.0300*%
%ADD15R,0.0300X0.0580*%
%ADD16C,0.0820*%
%ADD17R,0.0749X0.0356*%
%ADD18OC8,0.0820*%
%ADD19R,0.0513X0.0474*%
%ADD20C,0.1280*%
%ADD21R,0.0474X0.0789*%
%ADD22R,0.0297X0.0552*%
%ADD23C,0.0820*%
%ADD24R,0.0513X0.0474*%
D10*
X004160Y012325D03*
X004160Y012995D03*
X002660Y016825D03*
X002660Y017495D03*
X005160Y019825D03*
X005160Y020495D03*
X011660Y012995D03*
X011660Y012325D03*
D11*
X002711Y022160D03*
X001609Y022160D03*
X001609Y027160D03*
X002711Y027160D03*
D12*
X005160Y029696D03*
D13*
X003679Y030947D03*
X005150Y032579D03*
D14*
X005970Y021262D03*
X005970Y020947D03*
X005970Y020632D03*
X005970Y020317D03*
X005970Y020003D03*
X005970Y019688D03*
X005970Y019373D03*
X005970Y019058D03*
X009350Y019058D03*
X009350Y019373D03*
X009350Y019688D03*
X009350Y020003D03*
X009350Y020317D03*
X009350Y020632D03*
X009350Y020947D03*
X009350Y021262D03*
D15*
X008762Y021850D03*
X008447Y021850D03*
X008132Y021850D03*
X007817Y021850D03*
X007503Y021850D03*
X007188Y021850D03*
X006873Y021850D03*
X006558Y021850D03*
X006558Y018470D03*
X006873Y018470D03*
X007188Y018470D03*
X007503Y018470D03*
X007817Y018470D03*
X008132Y018470D03*
X008447Y018470D03*
X008762Y018470D03*
D16*
X003550Y018440D03*
X003550Y015880D03*
X001770Y015880D03*
X001770Y018440D03*
X009660Y030160D03*
X010660Y030160D03*
X011660Y030160D03*
X012660Y030160D03*
X013660Y030160D03*
X014660Y030160D03*
D17*
X010160Y019632D03*
X010160Y019160D03*
X010160Y018688D03*
D18*
X013660Y016660D03*
X013660Y015660D03*
X013660Y014660D03*
X014660Y014660D03*
X014660Y015660D03*
X014660Y016660D03*
D19*
X010825Y009160D03*
X002495Y025660D03*
X001825Y025660D03*
X013975Y027510D03*
X014645Y027510D03*
D20*
X001660Y001660D03*
X001660Y013660D03*
X001660Y032660D03*
X017160Y032660D03*
X017160Y013660D03*
X017160Y001660D03*
D21*
X002711Y028660D03*
X001609Y028660D03*
D22*
X001786Y024672D03*
X002160Y024672D03*
X002534Y024672D03*
X002534Y023648D03*
X001786Y023648D03*
D23*
X011790Y023660D02*
X012530Y023660D01*
X012530Y022660D02*
X011790Y022660D01*
X011790Y021660D02*
X012530Y021660D01*
X012530Y020660D02*
X011790Y020660D01*
X011790Y024660D02*
X012530Y024660D01*
D24*
X012325Y009163D03*
X012990Y009164D03*
X011489Y009161D03*
M02*
