%
M48
M72
T01C0.0200
T02C0.0400
T03C0.0440
T04C0.1180
T05C0.1200
T06C0.1260
%
T01
X4160Y11810
X7810Y19010
X7810Y20660
X8810Y19760
X8810Y19010
X9910Y20310
X11160Y19160
X11760Y18060
X11310Y16310
X9810Y17510
X7510Y22410
X7160Y23310
X6510Y21160
X4160Y21160
X11760Y11810
X13660Y9160
X14160Y19660
X12660Y27110
T02
X12660Y30160
X13660Y30160
X14660Y30160
X11660Y30160
X10660Y30160
X9660Y30160
X3550Y18440
X3550Y15880
X1770Y15880
X1770Y18440
X13660Y16660
X13660Y15660
X13660Y14660
X14660Y14660
X14660Y15660
X14660Y16660
T03
X12160Y20660
X12160Y21660
X12160Y22660
X12160Y23660
X12160Y24660
T04
X5150Y32579
X3679Y30947
T05
X1660Y1660
X1660Y13660
X1660Y32660
X17160Y32660
X17160Y13660
X17160Y1660
T06
X5160Y29696
M30
