G75*
%MOIN*%
%OFA0B0*%
%FSLAX24Y24*%
%IPPOS*%
%LPD*%
%AMOC8*
5,1,8,0,0,1.08239X$1,22.5*
%
%ADD10R,0.1095X0.1095*%
%ADD11C,0.3543*%
%ADD12C,0.0740*%
%ADD13C,0.0080*%
%ADD14C,0.0400*%
%ADD15C,0.0100*%
D10*
X001400Y011000D03*
X006600Y011000D03*
D11*
X004000Y011000D03*
D12*
X004250Y007000D03*
X003250Y007000D03*
X002250Y007000D03*
X001250Y007000D03*
X005250Y007000D03*
D13*
X000801Y006700D02*
X000450Y006700D01*
X000450Y012526D01*
X000527Y012393D01*
X000778Y012182D01*
X001086Y012070D01*
X001414Y012070D01*
X001722Y012182D01*
X001722Y012182D01*
X001973Y012393D01*
X001973Y012393D01*
X002137Y012677D01*
X002194Y013000D01*
X002137Y013323D01*
X001973Y013607D01*
X001743Y013800D01*
X007550Y013800D01*
X007550Y007974D01*
X007473Y008107D01*
X007222Y008318D01*
X006914Y008430D01*
X006586Y008430D01*
X006278Y008318D01*
X006278Y008318D01*
X006027Y008107D01*
X006027Y008107D01*
X005863Y007823D01*
X005806Y007500D01*
X005863Y007177D01*
X006027Y006893D01*
X006257Y006700D01*
X005699Y006700D01*
X005780Y006895D01*
X005780Y007105D01*
X005699Y007300D01*
X005550Y007449D01*
X005355Y007530D01*
X005145Y007530D01*
X004950Y007449D01*
X004801Y007300D01*
X004738Y007149D01*
X004723Y007196D01*
X004686Y007267D01*
X004639Y007332D01*
X004582Y007389D01*
X004517Y007436D01*
X004446Y007473D01*
X004369Y007497D01*
X004290Y007510D01*
X004290Y007040D01*
X004210Y007040D01*
X004210Y007510D01*
X004210Y007510D01*
X004131Y007497D01*
X004054Y007473D01*
X003983Y007436D01*
X003918Y007389D01*
X003861Y007332D01*
X003814Y007267D01*
X003777Y007196D01*
X003762Y007149D01*
X003699Y007300D01*
X003550Y007449D01*
X003355Y007530D01*
X003145Y007530D01*
X002950Y007449D01*
X002801Y007300D01*
X002750Y007178D01*
X002699Y007300D01*
X002550Y007449D01*
X002355Y007530D01*
X002145Y007530D01*
X001950Y007449D01*
X001801Y007300D01*
X001750Y007178D01*
X001699Y007300D01*
X001550Y007449D01*
X001355Y007530D01*
X001145Y007530D01*
X000950Y007449D01*
X000801Y007300D01*
X000720Y007105D01*
X000720Y006895D01*
X000801Y006700D01*
X000786Y006736D02*
X000450Y006736D01*
X000450Y006814D02*
X000753Y006814D01*
X000721Y006893D02*
X000450Y006893D01*
X000450Y006971D02*
X000720Y006971D01*
X000720Y007050D02*
X000450Y007050D01*
X000450Y007128D02*
X000729Y007128D01*
X000762Y007207D02*
X000450Y007207D01*
X000450Y007285D02*
X000794Y007285D01*
X000864Y007364D02*
X000450Y007364D01*
X000450Y007442D02*
X000942Y007442D01*
X001122Y007521D02*
X000450Y007521D01*
X000450Y007599D02*
X005823Y007599D01*
X005809Y007521D02*
X005378Y007521D01*
X005558Y007442D02*
X005816Y007442D01*
X005806Y007500D02*
X005806Y007500D01*
X005830Y007364D02*
X005636Y007364D01*
X005706Y007285D02*
X005844Y007285D01*
X005857Y007207D02*
X005738Y007207D01*
X005771Y007128D02*
X005891Y007128D01*
X005863Y007177D02*
X005863Y007177D01*
X005936Y007050D02*
X005780Y007050D01*
X005780Y006971D02*
X005982Y006971D01*
X006027Y006893D02*
X006027Y006893D01*
X005779Y006893D01*
X005747Y006814D02*
X006121Y006814D01*
X006214Y006736D02*
X005714Y006736D01*
X004762Y007207D02*
X004717Y007207D01*
X004673Y007285D02*
X004794Y007285D01*
X004864Y007364D02*
X004608Y007364D01*
X004506Y007442D02*
X004942Y007442D01*
X005122Y007521D02*
X003378Y007521D01*
X003558Y007442D02*
X003994Y007442D01*
X003892Y007364D02*
X003636Y007364D01*
X003706Y007285D02*
X003827Y007285D01*
X003783Y007207D02*
X003738Y007207D01*
X004210Y007207D02*
X004290Y007207D01*
X004290Y007285D02*
X004210Y007285D01*
X004210Y007364D02*
X004290Y007364D01*
X004290Y007442D02*
X004210Y007442D01*
X004290Y007510D02*
X004290Y007510D01*
X004290Y007128D02*
X004210Y007128D01*
X004210Y007050D02*
X004290Y007050D01*
X003122Y007521D02*
X002378Y007521D01*
X002558Y007442D02*
X002942Y007442D01*
X002864Y007364D02*
X002636Y007364D01*
X002706Y007285D02*
X002794Y007285D01*
X002762Y007207D02*
X002738Y007207D01*
X002122Y007521D02*
X001378Y007521D01*
X001558Y007442D02*
X001942Y007442D01*
X001864Y007364D02*
X001636Y007364D01*
X001706Y007285D02*
X001794Y007285D01*
X001762Y007207D02*
X001738Y007207D01*
X000450Y007678D02*
X005837Y007678D01*
X005851Y007756D02*
X000450Y007756D01*
X000450Y007835D02*
X005869Y007835D01*
X005863Y007823D02*
X005863Y007823D01*
X005915Y007913D02*
X000450Y007913D01*
X000450Y007992D02*
X005960Y007992D01*
X006005Y008070D02*
X000450Y008070D01*
X000450Y008149D02*
X006076Y008149D01*
X006027Y008107D02*
X006027Y008107D01*
X006170Y008227D02*
X005624Y008227D01*
X005587Y008190D02*
X005687Y008290D01*
X005822Y008290D01*
X005954Y008345D01*
X006055Y008446D01*
X006110Y008578D01*
X006110Y008722D01*
X006055Y008854D01*
X006028Y008881D01*
X006260Y009113D01*
X006260Y009201D01*
X006355Y009296D01*
X006410Y009428D01*
X006410Y009572D01*
X006355Y009704D01*
X006254Y009805D01*
X006122Y009860D01*
X005978Y009860D01*
X005846Y009805D01*
X005745Y009704D01*
X005690Y009572D01*
X005690Y009428D01*
X005745Y009296D01*
X005797Y009244D01*
X005763Y009210D01*
X004671Y009210D01*
X004732Y009232D01*
X004884Y009303D01*
X005028Y009386D01*
X005165Y009482D01*
X005293Y009589D01*
X005411Y009707D01*
X005518Y009835D01*
X005614Y009972D01*
X005697Y010116D01*
X005768Y010268D01*
X007550Y010268D01*
X007550Y010190D02*
X005731Y010190D01*
X005768Y010268D02*
X005825Y010425D01*
X005893Y010425D01*
X005893Y010386D02*
X005986Y010293D01*
X007214Y010293D01*
X007307Y010386D01*
X007307Y011614D01*
X007214Y011707D01*
X005986Y011707D01*
X005893Y011614D01*
X005893Y011276D01*
X005868Y011414D01*
X005825Y011575D01*
X005768Y011732D01*
X005697Y011884D01*
X005614Y012028D01*
X005518Y012165D01*
X005411Y012293D01*
X005293Y012411D01*
X005165Y012518D01*
X005028Y012614D01*
X004884Y012697D01*
X004732Y012768D01*
X004575Y012825D01*
X004414Y012868D01*
X004250Y012897D01*
X004083Y012912D01*
X004040Y012912D01*
X004040Y011040D01*
X003960Y011040D01*
X003960Y012912D01*
X003917Y012912D01*
X003750Y012897D01*
X003586Y012868D01*
X003425Y012825D01*
X003268Y012768D01*
X003116Y012697D01*
X002972Y012614D01*
X002835Y012518D01*
X002707Y012411D01*
X002589Y012293D01*
X002482Y012165D01*
X002386Y012028D01*
X002303Y011884D01*
X002232Y011732D01*
X002175Y011575D01*
X002132Y011414D01*
X002107Y011276D01*
X002107Y011614D01*
X002014Y011707D01*
X000786Y011707D01*
X000693Y011614D01*
X000693Y010386D01*
X000786Y010293D01*
X002014Y010293D01*
X002107Y010386D01*
X002107Y010724D01*
X002132Y010586D01*
X002175Y010425D01*
X002107Y010425D01*
X002175Y010425D02*
X002232Y010268D01*
X000450Y010268D01*
X000450Y010190D02*
X002269Y010190D01*
X002303Y010116D02*
X002232Y010268D01*
X002204Y010347D02*
X002068Y010347D01*
X002107Y010504D02*
X002154Y010504D01*
X002133Y010582D02*
X002107Y010582D01*
X002107Y010661D02*
X002119Y010661D01*
X002107Y010960D02*
X003960Y010960D01*
X003960Y011040D01*
X002107Y011040D01*
X002107Y010960D01*
X002107Y010975D02*
X003960Y010975D01*
X003960Y011053D02*
X004040Y011053D01*
X004040Y011132D02*
X003960Y011132D01*
X003960Y011210D02*
X004040Y011210D01*
X004040Y011289D02*
X003960Y011289D01*
X003960Y011367D02*
X004040Y011367D01*
X004040Y011446D02*
X003960Y011446D01*
X003960Y011524D02*
X004040Y011524D01*
X004040Y011603D02*
X003960Y011603D01*
X003960Y011681D02*
X004040Y011681D01*
X004040Y011760D02*
X003960Y011760D01*
X003960Y011838D02*
X004040Y011838D01*
X004040Y011917D02*
X003960Y011917D01*
X003960Y011995D02*
X004040Y011995D01*
X004040Y012074D02*
X003960Y012074D01*
X003960Y012152D02*
X004040Y012152D01*
X004040Y012231D02*
X003960Y012231D01*
X003960Y012309D02*
X004040Y012309D01*
X004040Y012388D02*
X003960Y012388D01*
X003960Y012466D02*
X004040Y012466D01*
X004040Y012545D02*
X003960Y012545D01*
X003960Y012623D02*
X004040Y012623D01*
X004040Y012702D02*
X003960Y012702D01*
X003960Y012780D02*
X004040Y012780D01*
X004040Y012859D02*
X003960Y012859D01*
X003550Y012859D02*
X002169Y012859D01*
X002183Y012937D02*
X007550Y012937D01*
X007550Y012859D02*
X004450Y012859D01*
X004699Y012780D02*
X007550Y012780D01*
X007550Y012702D02*
X004874Y012702D01*
X005012Y012623D02*
X007550Y012623D01*
X007550Y012545D02*
X005127Y012545D01*
X005227Y012466D02*
X007550Y012466D01*
X007550Y012388D02*
X005316Y012388D01*
X005394Y012309D02*
X007550Y012309D01*
X007550Y012231D02*
X005463Y012231D01*
X005527Y012152D02*
X007550Y012152D01*
X007550Y012074D02*
X005582Y012074D01*
X005633Y011995D02*
X007550Y011995D01*
X007550Y011917D02*
X005678Y011917D01*
X005719Y011838D02*
X007550Y011838D01*
X007550Y011760D02*
X005755Y011760D01*
X005786Y011681D02*
X005960Y011681D01*
X005893Y011603D02*
X005815Y011603D01*
X005839Y011524D02*
X005893Y011524D01*
X005893Y011446D02*
X005860Y011446D01*
X005876Y011367D02*
X005893Y011367D01*
X005890Y011289D02*
X005893Y011289D01*
X005893Y010724D02*
X005893Y010386D01*
X005932Y010347D02*
X005796Y010347D01*
X005825Y010425D02*
X005868Y010586D01*
X005893Y010724D01*
X005893Y010661D02*
X005881Y010661D01*
X005893Y010582D02*
X005867Y010582D01*
X005846Y010504D02*
X005893Y010504D01*
X005694Y010111D02*
X007550Y010111D01*
X007550Y010033D02*
X005649Y010033D01*
X005601Y009954D02*
X007550Y009954D01*
X007550Y009876D02*
X005546Y009876D01*
X005486Y009797D02*
X005838Y009797D01*
X005759Y009719D02*
X005420Y009719D01*
X005343Y009640D02*
X005718Y009640D01*
X005690Y009562D02*
X005260Y009562D01*
X005166Y009483D02*
X005690Y009483D01*
X005700Y009405D02*
X005054Y009405D01*
X004924Y009326D02*
X005732Y009326D01*
X005793Y009248D02*
X004765Y009248D01*
X003603Y009129D02*
X003546Y009105D01*
X003445Y009004D01*
X003390Y008872D01*
X003390Y008728D01*
X003439Y008610D01*
X002137Y008610D01*
X002053Y008694D01*
X002055Y008696D01*
X002110Y008828D01*
X002110Y008972D01*
X002055Y009104D01*
X001954Y009205D01*
X001822Y009260D01*
X001678Y009260D01*
X001546Y009205D01*
X001445Y009104D01*
X001390Y008972D01*
X001390Y008828D01*
X001445Y008696D01*
X001546Y008595D01*
X001567Y008586D01*
X001963Y008190D01*
X005587Y008190D01*
X005859Y008306D02*
X006263Y008306D01*
X006460Y008384D02*
X005993Y008384D01*
X006062Y008463D02*
X007550Y008463D01*
X007550Y008541D02*
X006095Y008541D01*
X006110Y008620D02*
X007550Y008620D01*
X007550Y008698D02*
X006110Y008698D01*
X006087Y008777D02*
X007550Y008777D01*
X007550Y008855D02*
X006054Y008855D01*
X006080Y008934D02*
X007550Y008934D01*
X007550Y009012D02*
X006159Y009012D01*
X006237Y009091D02*
X007550Y009091D01*
X007550Y009169D02*
X006260Y009169D01*
X006307Y009248D02*
X007550Y009248D01*
X007550Y009326D02*
X006368Y009326D01*
X006400Y009405D02*
X007550Y009405D01*
X007550Y009483D02*
X006410Y009483D01*
X006410Y009562D02*
X007550Y009562D01*
X007550Y009640D02*
X006382Y009640D01*
X006341Y009719D02*
X007550Y009719D01*
X007550Y009797D02*
X006262Y009797D01*
X007268Y010347D02*
X007550Y010347D01*
X007550Y010425D02*
X007307Y010425D01*
X007307Y010504D02*
X007550Y010504D01*
X007550Y010582D02*
X007307Y010582D01*
X007307Y010661D02*
X007550Y010661D01*
X007550Y010739D02*
X007307Y010739D01*
X007307Y010818D02*
X007550Y010818D01*
X007550Y010896D02*
X007307Y010896D01*
X007307Y010975D02*
X007550Y010975D01*
X007550Y011053D02*
X007307Y011053D01*
X007307Y011132D02*
X007550Y011132D01*
X007550Y011210D02*
X007307Y011210D01*
X007307Y011289D02*
X007550Y011289D01*
X007550Y011367D02*
X007307Y011367D01*
X007307Y011446D02*
X007550Y011446D01*
X007550Y011524D02*
X007307Y011524D01*
X007307Y011603D02*
X007550Y011603D01*
X007550Y011681D02*
X007240Y011681D01*
X007550Y013016D02*
X002192Y013016D01*
X002194Y013000D02*
X002194Y013000D01*
X002178Y013094D02*
X007550Y013094D01*
X007550Y013173D02*
X002164Y013173D01*
X002150Y013251D02*
X007550Y013251D01*
X007550Y013330D02*
X002134Y013330D01*
X002137Y013323D02*
X002137Y013323D01*
X002088Y013408D02*
X007550Y013408D01*
X007550Y013487D02*
X002043Y013487D01*
X001998Y013565D02*
X007550Y013565D01*
X007550Y013644D02*
X001930Y013644D01*
X001973Y013607D02*
X001973Y013607D01*
X001836Y013722D02*
X007550Y013722D01*
X003301Y012780D02*
X002156Y012780D01*
X002142Y012702D02*
X003126Y012702D01*
X002988Y012623D02*
X002106Y012623D01*
X002137Y012677D02*
X002137Y012677D01*
X002061Y012545D02*
X002873Y012545D01*
X002773Y012466D02*
X002016Y012466D01*
X001973Y012393D02*
X001973Y012393D01*
X001967Y012388D02*
X002684Y012388D01*
X002606Y012309D02*
X001873Y012309D01*
X001780Y012231D02*
X002537Y012231D01*
X002473Y012152D02*
X001639Y012152D01*
X001424Y012074D02*
X002418Y012074D01*
X002367Y011995D02*
X000450Y011995D01*
X000450Y011917D02*
X002322Y011917D01*
X002281Y011838D02*
X000450Y011838D01*
X000450Y011760D02*
X002245Y011760D01*
X002214Y011681D02*
X002040Y011681D01*
X002107Y011603D02*
X002185Y011603D01*
X002161Y011524D02*
X002107Y011524D01*
X002107Y011446D02*
X002140Y011446D01*
X002124Y011367D02*
X002107Y011367D01*
X002107Y011289D02*
X002110Y011289D01*
X000760Y011681D02*
X000450Y011681D01*
X000450Y011603D02*
X000693Y011603D01*
X000693Y011524D02*
X000450Y011524D01*
X000450Y011446D02*
X000693Y011446D01*
X000693Y011367D02*
X000450Y011367D01*
X000450Y011289D02*
X000693Y011289D01*
X000693Y011210D02*
X000450Y011210D01*
X000450Y011132D02*
X000693Y011132D01*
X000693Y011053D02*
X000450Y011053D01*
X000450Y010975D02*
X000693Y010975D01*
X000693Y010896D02*
X000450Y010896D01*
X000450Y010818D02*
X000693Y010818D01*
X000693Y010739D02*
X000450Y010739D01*
X000450Y010661D02*
X000693Y010661D01*
X000693Y010582D02*
X000450Y010582D01*
X000450Y010504D02*
X000693Y010504D01*
X000693Y010425D02*
X000450Y010425D01*
X000450Y010347D02*
X000732Y010347D01*
X000450Y010111D02*
X002306Y010111D01*
X002303Y010116D02*
X002386Y009972D01*
X002482Y009835D01*
X002589Y009707D01*
X002707Y009589D01*
X002835Y009482D01*
X002972Y009386D01*
X003116Y009303D01*
X003268Y009232D01*
X003425Y009175D01*
X003586Y009132D01*
X003603Y009129D01*
X003531Y009091D02*
X002061Y009091D01*
X002093Y009012D02*
X003453Y009012D01*
X003416Y008934D02*
X002110Y008934D01*
X002110Y008855D02*
X003390Y008855D01*
X003390Y008777D02*
X002089Y008777D01*
X002056Y008698D02*
X003403Y008698D01*
X003435Y008620D02*
X002127Y008620D01*
X001848Y008306D02*
X000450Y008306D01*
X000450Y008384D02*
X001769Y008384D01*
X001691Y008463D02*
X000450Y008463D01*
X000450Y008541D02*
X001612Y008541D01*
X001521Y008620D02*
X000450Y008620D01*
X000450Y008698D02*
X001444Y008698D01*
X001411Y008777D02*
X000450Y008777D01*
X000450Y008855D02*
X001390Y008855D01*
X001390Y008934D02*
X000450Y008934D01*
X000450Y009012D02*
X001407Y009012D01*
X001439Y009091D02*
X000450Y009091D01*
X000450Y009169D02*
X001510Y009169D01*
X001648Y009248D02*
X000450Y009248D01*
X000450Y009326D02*
X003076Y009326D01*
X002946Y009405D02*
X000450Y009405D01*
X000450Y009483D02*
X002834Y009483D01*
X002740Y009562D02*
X000450Y009562D01*
X000450Y009640D02*
X002657Y009640D01*
X002580Y009719D02*
X000450Y009719D01*
X000450Y009797D02*
X002514Y009797D01*
X002454Y009876D02*
X000450Y009876D01*
X000450Y009954D02*
X002399Y009954D01*
X002351Y010033D02*
X000450Y010033D01*
X001852Y009248D02*
X003235Y009248D01*
X003447Y009169D02*
X001990Y009169D01*
X001926Y008227D02*
X000450Y008227D01*
X007040Y008384D02*
X007550Y008384D01*
X007550Y008306D02*
X007237Y008306D01*
X007222Y008318D02*
X007222Y008318D01*
X007330Y008227D02*
X007550Y008227D01*
X007550Y008149D02*
X007424Y008149D01*
X007473Y008107D02*
X007473Y008107D01*
X007495Y008070D02*
X007550Y008070D01*
X007540Y007992D02*
X007550Y007992D01*
X001076Y012074D02*
X000450Y012074D01*
X000450Y012152D02*
X000861Y012152D01*
X000778Y012182D02*
X000778Y012182D01*
X000720Y012231D02*
X000450Y012231D01*
X000450Y012309D02*
X000627Y012309D01*
X000533Y012388D02*
X000450Y012388D01*
X000527Y012393D02*
X000527Y012393D01*
X000484Y012466D02*
X000450Y012466D01*
D14*
X002700Y011750D03*
X006050Y009500D03*
X005750Y008650D03*
X003750Y008800D03*
X001750Y008900D03*
D15*
X001750Y008700D01*
X002050Y008400D01*
X005500Y008400D01*
X005750Y008650D01*
X005850Y009000D02*
X003950Y009000D01*
X003750Y008800D01*
X005850Y009000D02*
X006050Y009200D01*
X006050Y009500D01*
X004000Y011000D02*
X003450Y011000D01*
X002700Y011750D01*
M02*
