G75*
%MOIN*%
%OFA0B0*%
%FSLAX24Y24*%
%IPPOS*%
%LPD*%
%AMOC8*
5,1,8,0,0,1.08239X$1,22.5*
%
%ADD10C,0.0080*%
%ADD11C,0.0010*%
%ADD12C,0.0060*%
%ADD13C,0.0020*%
%ADD14C,0.0220*%
D10*
X001000Y006500D02*
X000750Y006750D01*
X000750Y007250D01*
X001000Y007500D01*
X001500Y007500D01*
X001750Y007250D01*
X002000Y007500D01*
X002500Y007500D01*
X002750Y007250D01*
X003000Y007500D01*
X003500Y007500D01*
X003750Y007250D01*
X004000Y007500D01*
X004500Y007500D01*
X004750Y007250D01*
X005000Y007500D01*
X005500Y007500D01*
X005750Y007250D01*
X005750Y006750D01*
X005500Y006500D01*
X005000Y006500D01*
X004750Y006750D01*
X004500Y006500D01*
X004000Y006500D01*
X003750Y006750D01*
X003500Y006500D01*
X003000Y006500D01*
X002750Y006750D01*
X002500Y006500D01*
X002000Y006500D01*
X001750Y006750D01*
X001500Y006500D01*
X001000Y006500D01*
X001110Y007640D02*
X001180Y007640D01*
X001250Y007710D01*
X001250Y007850D01*
X001320Y007920D01*
X001390Y007920D01*
X001460Y007850D01*
X001460Y007710D01*
X001390Y007640D01*
X001110Y007640D02*
X001040Y007710D01*
X001040Y007850D01*
X001110Y007920D01*
X001040Y008100D02*
X001040Y008311D01*
X001110Y008381D01*
X001390Y008381D01*
X001460Y008311D01*
X001460Y008100D01*
X001040Y008100D01*
X002040Y008170D02*
X002040Y008311D01*
X002110Y008381D01*
X002040Y008561D02*
X002460Y008561D01*
X002460Y008841D01*
X003040Y008841D02*
X003460Y008841D01*
X003320Y008701D01*
X003460Y008561D01*
X003040Y008561D01*
X003110Y008381D02*
X003040Y008311D01*
X003040Y008170D01*
X003110Y008100D01*
X003390Y008100D01*
X003460Y008170D01*
X003460Y008311D01*
X003390Y008381D01*
X003110Y008381D01*
X003320Y008241D02*
X003460Y008381D01*
X004040Y008381D02*
X004460Y008381D01*
X004040Y008100D01*
X004460Y008100D01*
X004390Y007920D02*
X004250Y007920D01*
X004250Y007780D01*
X004110Y007640D02*
X004390Y007640D01*
X004460Y007710D01*
X004460Y007850D01*
X004390Y007920D01*
X004110Y007920D02*
X004040Y007850D01*
X004040Y007710D01*
X004110Y007640D01*
X003460Y007710D02*
X003460Y007850D01*
X003390Y007920D01*
X003320Y007920D01*
X003250Y007850D01*
X003250Y007710D01*
X003180Y007640D01*
X003110Y007640D01*
X003040Y007710D01*
X003040Y007850D01*
X003110Y007920D01*
X003390Y007640D02*
X003460Y007710D01*
X002460Y007710D02*
X002390Y007640D01*
X002460Y007710D02*
X002460Y007850D01*
X002390Y007920D01*
X002320Y007920D01*
X002250Y007850D01*
X002250Y007710D01*
X002180Y007640D01*
X002110Y007640D01*
X002040Y007710D01*
X002040Y007850D01*
X002110Y007920D01*
X002110Y008100D02*
X002390Y008100D01*
X002460Y008170D01*
X002460Y008311D01*
X002390Y008381D01*
X002110Y008100D02*
X002040Y008170D01*
X001460Y008561D02*
X001180Y008561D01*
X001040Y008701D01*
X001180Y008841D01*
X001460Y008841D01*
X001250Y008841D02*
X001250Y008561D01*
X004040Y008561D02*
X004040Y008771D01*
X004110Y008841D01*
X004390Y008841D01*
X004460Y008771D01*
X004460Y008561D01*
X004040Y008561D01*
X005040Y008381D02*
X005320Y008381D01*
X005460Y008241D01*
X005320Y008100D01*
X005040Y008100D01*
X005040Y007920D02*
X005040Y007640D01*
X005250Y007640D01*
X005180Y007780D01*
X005180Y007850D01*
X005250Y007920D01*
X005390Y007920D01*
X005460Y007850D01*
X005460Y007710D01*
X005390Y007640D01*
X005322Y013290D02*
X005252Y013360D01*
X005252Y013500D01*
X005322Y013570D01*
X005533Y013570D01*
X005533Y013710D02*
X005533Y013290D01*
X005322Y013290D01*
X005072Y013360D02*
X005072Y013500D01*
X005002Y013570D01*
X004862Y013570D01*
X004792Y013500D01*
X004792Y013360D01*
X004862Y013290D01*
X005002Y013290D01*
X005072Y013360D01*
X004612Y013290D02*
X004612Y013710D01*
X004472Y013570D01*
X004332Y013710D01*
X004332Y013290D01*
X003691Y013360D02*
X003621Y013290D01*
X003481Y013290D01*
X003411Y013360D01*
X003411Y013640D01*
X003481Y013710D01*
X003621Y013710D01*
X003691Y013640D01*
X003231Y013710D02*
X002950Y013710D01*
X003091Y013710D02*
X003091Y013290D01*
X002770Y013290D02*
X002630Y013430D01*
X002700Y013430D02*
X002490Y013430D01*
X002490Y013290D02*
X002490Y013710D01*
X002700Y013710D01*
X002770Y013640D01*
X002770Y013500D01*
X002700Y013430D01*
X005713Y013360D02*
X005783Y013290D01*
X005993Y013290D01*
X005993Y013570D01*
X006173Y013710D02*
X006243Y013710D01*
X006243Y013290D01*
X006173Y013290D02*
X006313Y013290D01*
X006480Y013360D02*
X006480Y013500D01*
X006550Y013570D01*
X006690Y013570D01*
X006760Y013500D01*
X006760Y013430D01*
X006480Y013430D01*
X006480Y013360D02*
X006550Y013290D01*
X006690Y013290D01*
X005713Y013360D02*
X005713Y013570D01*
D11*
X006728Y013005D02*
X006759Y013027D01*
X006790Y013042D01*
X006823Y013051D01*
X006857Y013054D01*
X006892Y013051D01*
X006927Y013042D01*
X006936Y013038D01*
X006950Y013032D01*
X006970Y013023D01*
X006987Y013010D01*
X006988Y013009D01*
X006988Y013009D01*
X006964Y013009D01*
X006943Y013007D01*
X006923Y013001D01*
X006903Y012990D01*
X006887Y012975D01*
X006875Y012956D01*
X006868Y012934D01*
X006867Y012921D01*
X006870Y012908D01*
X006878Y012888D01*
X006890Y012869D01*
X006904Y012852D01*
X006921Y012838D01*
X006957Y012812D01*
X006977Y012802D01*
X006999Y012798D01*
X007022Y012800D01*
X007030Y012803D01*
X007045Y012814D01*
X007057Y012828D01*
X007059Y012833D01*
X007108Y012833D01*
X007104Y012838D02*
X007060Y012874D01*
X007060Y012839D01*
X007059Y012833D01*
X007060Y012841D02*
X007100Y012841D01*
X007104Y012838D02*
X007140Y012793D01*
X007160Y012756D01*
X006748Y012756D01*
X006740Y012765D02*
X007155Y012765D01*
X007151Y012773D02*
X006732Y012773D01*
X006732Y012774D02*
X006789Y012713D01*
X006804Y012695D01*
X006814Y012674D01*
X006818Y012651D01*
X006817Y012628D01*
X006809Y012606D01*
X006796Y012587D01*
X006778Y012572D01*
X006756Y012560D01*
X006732Y012552D01*
X006707Y012548D01*
X006678Y012549D01*
X006650Y012558D01*
X006625Y012573D01*
X006612Y012587D01*
X006603Y012604D01*
X006599Y012622D01*
X006599Y012639D01*
X006603Y012657D01*
X006607Y012664D01*
X006612Y012669D01*
X006645Y012693D01*
X006651Y012696D01*
X006658Y012698D01*
X006665Y012697D01*
X006646Y012700D01*
X006609Y012703D01*
X006572Y012700D01*
X006544Y012693D01*
X006519Y012680D01*
X006497Y012663D01*
X006606Y012663D01*
X006602Y012654D02*
X006489Y012654D01*
X006482Y012646D02*
X006601Y012646D01*
X006599Y012637D02*
X006476Y012637D01*
X006478Y012641D02*
X006462Y012612D01*
X006453Y012581D01*
X006450Y012548D01*
X006450Y011951D01*
X006642Y012167D01*
X006676Y012198D01*
X006716Y012222D01*
X006731Y012227D01*
X006746Y012230D01*
X006836Y012230D01*
X006890Y012235D01*
X006942Y012249D01*
X006990Y012273D01*
X007036Y012305D01*
X007076Y012343D01*
X007111Y012387D01*
X007148Y012453D01*
X007173Y012525D01*
X007184Y012600D01*
X007182Y012676D01*
X007174Y012717D01*
X007160Y012756D01*
X007163Y012748D02*
X006756Y012748D01*
X006764Y012739D02*
X007166Y012739D01*
X007169Y012731D02*
X006772Y012731D01*
X006780Y012722D02*
X007172Y012722D01*
X007175Y012714D02*
X006788Y012714D01*
X006796Y012705D02*
X007176Y012705D01*
X007178Y012697D02*
X006803Y012697D01*
X006808Y012688D02*
X007180Y012688D01*
X007181Y012680D02*
X006812Y012680D01*
X006815Y012671D02*
X007182Y012671D01*
X007182Y012663D02*
X006816Y012663D01*
X006818Y012654D02*
X007183Y012654D01*
X007183Y012646D02*
X006818Y012646D01*
X006817Y012637D02*
X007183Y012637D01*
X007183Y012629D02*
X006817Y012629D01*
X006814Y012620D02*
X007184Y012620D01*
X007184Y012612D02*
X006811Y012612D01*
X006807Y012603D02*
X007184Y012603D01*
X007184Y012595D02*
X006801Y012595D01*
X006795Y012586D02*
X007182Y012586D01*
X007181Y012578D02*
X006785Y012578D01*
X006773Y012569D02*
X007180Y012569D01*
X007178Y012561D02*
X006757Y012561D01*
X006733Y012552D02*
X007177Y012552D01*
X007176Y012544D02*
X006450Y012544D01*
X006450Y012552D02*
X006669Y012552D01*
X006645Y012561D02*
X006451Y012561D01*
X006452Y012569D02*
X006631Y012569D01*
X006621Y012578D02*
X006453Y012578D01*
X006454Y012586D02*
X006612Y012586D01*
X006608Y012595D02*
X006457Y012595D01*
X006460Y012603D02*
X006603Y012603D01*
X006601Y012612D02*
X006462Y012612D01*
X006467Y012620D02*
X006599Y012620D01*
X006599Y012629D02*
X006471Y012629D01*
X006478Y012641D02*
X006497Y012663D01*
X006507Y012671D02*
X006615Y012671D01*
X006627Y012680D02*
X006518Y012680D01*
X006535Y012688D02*
X006638Y012688D01*
X006653Y012697D02*
X006559Y012697D01*
X006715Y012799D02*
X006994Y012799D01*
X007010Y012799D02*
X007136Y012799D01*
X007142Y012790D02*
X006721Y012790D01*
X006726Y012782D02*
X007146Y012782D01*
X007129Y012807D02*
X007036Y012807D01*
X007047Y012816D02*
X007122Y012816D01*
X007115Y012824D02*
X007054Y012824D01*
X007060Y012850D02*
X007090Y012850D01*
X007079Y012858D02*
X007060Y012858D01*
X007060Y012867D02*
X007069Y012867D01*
X006966Y012807D02*
X006709Y012807D01*
X006703Y012816D02*
X006952Y012816D01*
X006940Y012824D02*
X006698Y012824D01*
X006692Y012833D02*
X006928Y012833D01*
X006917Y012841D02*
X006686Y012841D01*
X006685Y012843D02*
X006732Y012774D01*
X006685Y012843D02*
X006674Y012870D01*
X006670Y012899D01*
X006674Y012928D01*
X006684Y012955D01*
X006701Y012979D01*
X006728Y013005D01*
X006726Y013003D02*
X006929Y013003D01*
X006910Y012994D02*
X006717Y012994D01*
X006708Y012986D02*
X006898Y012986D01*
X006889Y012977D02*
X006700Y012977D01*
X006694Y012969D02*
X006883Y012969D01*
X006877Y012960D02*
X006688Y012960D01*
X006683Y012952D02*
X006873Y012952D01*
X006871Y012943D02*
X006679Y012943D01*
X006676Y012935D02*
X006868Y012935D01*
X006868Y012926D02*
X006673Y012926D01*
X006672Y012918D02*
X006868Y012918D01*
X006870Y012909D02*
X006671Y012909D01*
X006670Y012901D02*
X006873Y012901D01*
X006877Y012892D02*
X006671Y012892D01*
X006672Y012884D02*
X006881Y012884D01*
X006886Y012875D02*
X006673Y012875D01*
X006675Y012867D02*
X006892Y012867D01*
X006899Y012858D02*
X006679Y012858D01*
X006682Y012850D02*
X006907Y012850D01*
X006985Y013011D02*
X006737Y013011D01*
X006749Y013020D02*
X006975Y013020D01*
X006959Y013028D02*
X006761Y013028D01*
X006778Y013037D02*
X006939Y013037D01*
X006914Y013045D02*
X006800Y013045D01*
X006853Y013054D02*
X006860Y013054D01*
X007175Y012535D02*
X006450Y012535D01*
X006450Y012527D02*
X007173Y012527D01*
X007171Y012518D02*
X006450Y012518D01*
X006450Y012510D02*
X007168Y012510D01*
X007165Y012501D02*
X006450Y012501D01*
X006450Y012493D02*
X007162Y012493D01*
X007159Y012484D02*
X006450Y012484D01*
X006450Y012476D02*
X007156Y012476D01*
X007153Y012467D02*
X006450Y012467D01*
X006450Y012459D02*
X007150Y012459D01*
X007147Y012450D02*
X006450Y012450D01*
X006450Y012442D02*
X007142Y012442D01*
X007137Y012433D02*
X006450Y012433D01*
X006450Y012425D02*
X007132Y012425D01*
X007127Y012416D02*
X006450Y012416D01*
X006450Y012408D02*
X007123Y012408D01*
X007118Y012399D02*
X006450Y012399D01*
X006450Y012391D02*
X007113Y012391D01*
X007107Y012382D02*
X006450Y012382D01*
X006450Y012374D02*
X007100Y012374D01*
X007094Y012365D02*
X006450Y012365D01*
X006450Y012357D02*
X007087Y012357D01*
X007080Y012348D02*
X006450Y012348D01*
X006450Y012340D02*
X007072Y012340D01*
X007063Y012331D02*
X006450Y012331D01*
X006450Y012323D02*
X007054Y012323D01*
X007045Y012314D02*
X006450Y012314D01*
X006450Y012306D02*
X007036Y012306D01*
X007024Y012297D02*
X006450Y012297D01*
X006450Y012289D02*
X007012Y012289D01*
X007000Y012280D02*
X006450Y012280D01*
X006450Y012272D02*
X006987Y012272D01*
X006970Y012263D02*
X006450Y012263D01*
X006450Y012255D02*
X006952Y012255D01*
X006930Y012246D02*
X006450Y012246D01*
X006450Y012238D02*
X006900Y012238D01*
X006741Y012229D02*
X006450Y012229D01*
X006450Y012221D02*
X006714Y012221D01*
X006699Y012212D02*
X006450Y012212D01*
X006450Y012204D02*
X006685Y012204D01*
X006673Y012195D02*
X006450Y012195D01*
X006450Y012187D02*
X006663Y012187D01*
X006654Y012178D02*
X006450Y012178D01*
X006450Y012170D02*
X006645Y012170D01*
X006637Y012161D02*
X006450Y012161D01*
X006450Y012153D02*
X006629Y012153D01*
X006622Y012144D02*
X006450Y012144D01*
X006450Y012136D02*
X006614Y012136D01*
X006607Y012127D02*
X006450Y012127D01*
X006450Y012119D02*
X006599Y012119D01*
X006591Y012110D02*
X006450Y012110D01*
X006450Y012102D02*
X006584Y012102D01*
X006576Y012093D02*
X006450Y012093D01*
X006450Y012085D02*
X006569Y012085D01*
X006561Y012076D02*
X006450Y012076D01*
X006450Y012068D02*
X006554Y012068D01*
X006546Y012059D02*
X006450Y012059D01*
X006450Y012051D02*
X006539Y012051D01*
X006531Y012042D02*
X006450Y012042D01*
X006450Y012034D02*
X006524Y012034D01*
X006516Y012025D02*
X006450Y012025D01*
X006450Y012017D02*
X006508Y012017D01*
X006501Y012008D02*
X006450Y012008D01*
X006450Y012000D02*
X006493Y012000D01*
X006486Y011991D02*
X006450Y011991D01*
X006450Y011983D02*
X006478Y011983D01*
X006471Y011974D02*
X006450Y011974D01*
X006450Y011966D02*
X006463Y011966D01*
X006456Y011957D02*
X006450Y011957D01*
D12*
X004250Y012120D02*
X004250Y011700D01*
X004250Y011300D01*
X004250Y010880D01*
X004248Y010857D01*
X004243Y010834D01*
X004234Y010812D01*
X004221Y010792D01*
X004206Y010774D01*
X004188Y010759D01*
X004168Y010746D01*
X004146Y010737D01*
X004123Y010732D01*
X004100Y010730D01*
X002400Y010730D01*
X002377Y010732D01*
X002354Y010737D01*
X002332Y010746D01*
X002312Y010759D01*
X002294Y010774D01*
X002279Y010792D01*
X002266Y010812D01*
X002257Y010834D01*
X002252Y010857D01*
X002250Y010880D01*
X002250Y012120D01*
X002252Y012143D01*
X002257Y012166D01*
X002266Y012188D01*
X002279Y012208D01*
X002294Y012226D01*
X002312Y012241D01*
X002332Y012254D01*
X002354Y012263D01*
X002377Y012268D01*
X002400Y012270D01*
X004100Y012270D01*
X004123Y012268D01*
X004146Y012263D01*
X004168Y012254D01*
X004188Y012241D01*
X004206Y012226D01*
X004221Y012208D01*
X004234Y012188D01*
X004243Y012166D01*
X004248Y012143D01*
X004250Y012120D01*
X004250Y011700D02*
X004223Y011698D01*
X004196Y011693D01*
X004170Y011683D01*
X004146Y011671D01*
X004124Y011655D01*
X004104Y011637D01*
X004087Y011615D01*
X004072Y011592D01*
X004062Y011567D01*
X004054Y011541D01*
X004050Y011514D01*
X004050Y011486D01*
X004054Y011459D01*
X004062Y011433D01*
X004072Y011408D01*
X004087Y011385D01*
X004104Y011363D01*
X004124Y011345D01*
X004146Y011329D01*
X004170Y011317D01*
X004196Y011307D01*
X004223Y011302D01*
X004250Y011300D01*
X006450Y009600D02*
X007050Y009600D01*
X007067Y009598D01*
X007084Y009594D01*
X007100Y009587D01*
X007114Y009577D01*
X007127Y009564D01*
X007137Y009550D01*
X007144Y009534D01*
X007148Y009517D01*
X007150Y009500D01*
X007150Y008500D01*
X007148Y008483D01*
X007144Y008466D01*
X007137Y008450D01*
X007127Y008436D01*
X007114Y008423D01*
X007100Y008413D01*
X007084Y008406D01*
X007067Y008402D01*
X007050Y008400D01*
X006450Y008400D01*
X006433Y008402D01*
X006416Y008406D01*
X006400Y008413D01*
X006386Y008423D01*
X006373Y008436D01*
X006363Y008450D01*
X006356Y008466D01*
X006352Y008483D01*
X006350Y008500D01*
X006350Y009500D01*
X006352Y009517D01*
X006356Y009534D01*
X006363Y009550D01*
X006373Y009564D01*
X006386Y009577D01*
X006400Y009587D01*
X006416Y009594D01*
X006433Y009598D01*
X006450Y009600D01*
D13*
X004250Y012130D02*
X002250Y012130D01*
D14*
X006750Y010012D02*
X006750Y009988D01*
M02*
