G75*
G70*
%OFA0B0*%
%FSLAX24Y24*%
%IPPOS*%
%LPD*%
%AMOC8*
5,1,8,0,0,1.08239X$1,22.5*
%
%ADD10C,0.0080*%
%ADD11C,0.0100*%
D10*
X011940Y007020D02*
X012020Y006940D01*
X012180Y006940D01*
X012260Y007020D01*
X012260Y007180D01*
X012180Y007260D01*
X012100Y007260D01*
X011940Y007180D01*
X011940Y007420D01*
X012260Y007420D01*
X012456Y007420D02*
X012456Y007100D01*
X012616Y006940D01*
X012776Y007100D01*
X012776Y007420D01*
D11*
X010227Y012545D02*
X010202Y012588D01*
X010174Y012628D01*
X010142Y012666D01*
X010108Y012702D01*
X010071Y012734D01*
X010032Y012764D01*
X009990Y012791D01*
X009946Y012814D01*
X009901Y012833D01*
X009854Y012849D01*
X009806Y012861D01*
X009758Y012870D01*
X009708Y012874D01*
X009659Y012875D01*
X009610Y012871D01*
X009561Y012864D01*
X009513Y012853D01*
X009466Y012838D01*
X009420Y012820D01*
X009375Y012798D01*
X009333Y012773D01*
X009293Y012744D01*
X009255Y012712D01*
X009220Y012677D01*
X009188Y012640D01*
X009158Y012600D01*
X009132Y012558D01*
X009110Y012514D01*
X009100Y012500D02*
X009100Y012800D01*
X009100Y012500D02*
X009400Y012550D01*
X009950Y012600D02*
X010250Y012500D01*
X010250Y012850D01*
M02*
